<svg width="1366" height="46" viewBox="0 0 1366 46" fill="none" xmlns="http://www.w3.org/2000/svg">
<mask id="mask0_1282_21510" style="mask-type:alpha" maskUnits="userSpaceOnUse" x="0" y="0" width="1366" height="46">
<rect y="0.49707" width="1365.93" height="45.5029" fill="#D9D9D9"/>
</mask>
<g mask="url(#mask0_1282_21510)">
<g clip-path="url(#clip0_1282_21510)">
<path d="M304.657 32.473L303.396 34.8514L311.515 39.1546L312.776 36.7761L304.657 32.473Z" fill="#FFCEE3"/>
<path d="M334.627 14.8945L333.864 17.4758L342.676 20.0799L343.439 17.4986L334.627 14.8945Z" fill="#FFA878"/>
<path d="M319.323 26.9907L316.732 27.7194L319.219 36.5654L321.81 35.8368L319.323 26.9907Z" fill="#91D6D0"/>
<path d="M298.58 7.97116L296.054 8.89954L299.223 17.5241L301.749 16.5958L298.58 7.97116Z" fill="#ADD5EA"/>
<path d="M275.045 26.5866L266.198 29.074L266.927 31.6653L275.773 29.1779L275.045 26.5866Z" fill="#FFE27A"/>
<path d="M303.284 -2.61291L301.938 -0.28186L309.895 4.31254L311.241 1.98149L303.284 -2.61291Z" fill="#B4B6DB"/>
<path d="M283.759 3.14599L281.855 5.04932L288.353 11.5467L290.256 9.64339L283.759 3.14599Z" fill="#91D6D0"/>
<path d="M281.754 13.8791L278.629 22.5203L281.16 23.4357L284.286 14.7946L281.754 13.8791Z" fill="#FFCEE3"/>
<path d="M325.104 1.88528L324.043 4.35925L332.489 7.98056L333.55 5.50658L325.104 1.88528Z" fill="#FFCEE3"/>
<path d="M272.381 0.182338L269.759 0.791748L271.84 9.74164L274.461 9.13223L272.381 0.182338Z" fill="#FF7E9C"/>
<path d="M290.003 20.5783L286.041 28.8684L288.469 30.0291L292.432 21.739L290.003 20.5783Z" fill="#FFAFAF"/>
<path d="M302.548 23.3168L294.188 27.1311L295.306 29.58L303.666 25.7658L302.548 23.3168Z" fill="#DC9ECC"/>
<path d="M265.641 14.8903L264.878 17.4717L273.69 20.0758L274.453 17.4944L265.641 14.8903Z" fill="#FFA878"/>
<path d="M319.24 19.752L310.29 21.8333L310.9 24.455L319.85 22.3737L319.24 19.752Z" fill="#FFE27A"/>
<path d="M315.715 4.93221L310.249 12.3191L312.413 13.9201L317.878 6.53325L315.715 4.93221Z" fill="#FFAFAF"/>
<path d="M325.845 14.7408L323.629 16.2689L328.845 23.8331L331.061 22.305L325.845 14.7408Z" fill="#FF7E9C"/>
<path d="M283.416 34.7021L281.676 36.7554L288.685 42.6968L290.425 40.6436L283.416 34.7021Z" fill="#91D6D0"/>
<path d="M273.67 34.4154L272.139 43.4756L274.793 43.924L276.324 34.8639L273.67 34.4154Z" fill="#DC9ECC"/>
<path d="M315.445 42.76L315.311 45.4482L324.487 45.9086L324.622 43.2204L315.445 42.76Z" fill="#FF7E9C"/>
<path d="M301.209 37.3888L298.587 37.9982L300.668 46.9481L303.29 46.3387L301.209 37.3888Z" fill="#FFE27A"/>
<path d="M304.657 32.473L303.396 34.8514L311.515 39.1546L312.776 36.7761L304.657 32.473Z" fill="#FFCEE3"/>
<path d="M290.752 45.694L287.123 54.1357L289.596 55.199L293.225 46.7572L290.752 45.694Z" fill="#DC9ECC"/>
<path d="M327.708 35.8636L326.792 38.3949L335.434 41.52L336.349 38.9887L327.708 35.8636Z" fill="#ADD5EA"/>
<path d="M258.722 35.8674L257.807 38.3987L266.448 41.5238L267.363 38.9925L258.722 35.8674Z" fill="#ADD5EA"/>
<path d="M319.323 26.9907L316.732 27.7194L319.219 36.5654L321.81 35.8368L319.323 26.9907Z" fill="#91D6D0"/>
<path d="M235.674 32.4722L234.414 34.8506L242.533 39.1537L243.794 36.7753L235.674 32.4722Z" fill="#FFCEE3"/>
<path d="M265.641 14.8903L264.878 17.4717L273.69 20.0758L274.453 17.4944L265.641 14.8903Z" fill="#FFA878"/>
<path d="M250.334 26.9946L247.743 27.7233L250.23 36.5693L252.821 35.8407L250.334 26.9946Z" fill="#91D6D0"/>
<path d="M229.602 7.97042L227.076 8.8988L230.245 17.5234L232.771 16.595L229.602 7.97042Z" fill="#ADD5EA"/>
<path d="M206.062 26.5886L197.216 29.076L197.945 31.6674L206.791 29.18L206.062 26.5886Z" fill="#FFE27A"/>
<path d="M234.298 -2.61181L232.952 -0.280762L240.91 4.31364L242.256 1.98259L234.298 -2.61181Z" fill="#B4B6DB"/>
<path d="M214.773 3.14782L212.869 5.05115L219.367 11.5485L221.27 9.64522L214.773 3.14782Z" fill="#91D6D0"/>
<path d="M212.769 13.883L209.644 22.5242L212.175 23.4396L215.3 14.7985L212.769 13.883Z" fill="#FFCEE3"/>
<path d="M256.12 1.89126L255.06 4.36523L263.505 7.98654L264.566 5.51256L256.12 1.89126Z" fill="#FFCEE3"/>
<path d="M203.395 0.179653L200.773 0.789062L202.854 9.73895L205.476 9.12954L203.395 0.179653Z" fill="#FF7E9C"/>
<path d="M221.023 20.5727L217.061 28.8628L219.49 30.0235L223.452 21.7333L221.023 20.5727Z" fill="#FFAFAF"/>
<path d="M233.565 23.3137L225.205 27.1279L226.322 29.5769L234.682 25.7626L233.565 23.3137Z" fill="#DC9ECC"/>
<path d="M196.653 14.8926L195.891 17.474L204.703 20.0781L205.466 17.4967L196.653 14.8926Z" fill="#FFA878"/>
<path d="M250.261 19.7544L241.311 21.8357L241.92 24.4574L250.87 22.3762L250.261 19.7544Z" fill="#FFE27A"/>
<path d="M246.734 4.93245L241.269 12.3193L243.432 13.9204L248.898 6.5335L246.734 4.93245Z" fill="#FFAFAF"/>
<path d="M256.863 14.7354L254.647 16.2635L259.864 23.8278L262.08 22.2997L256.863 14.7354Z" fill="#FF7E9C"/>
<path d="M214.431 34.7036L212.69 36.7568L219.699 42.6983L221.44 40.6451L214.431 34.7036Z" fill="#91D6D0"/>
<path d="M204.682 34.4165L203.151 43.4767L205.805 43.9251L207.336 34.865L204.682 34.4165Z" fill="#DC9ECC"/>
<path d="M246.462 42.7534L246.327 45.4417L255.504 45.902L255.639 43.2138L246.462 42.7534Z" fill="#FF7E9C"/>
<path d="M232.223 37.3861L229.601 37.9955L231.682 46.9454L234.303 46.336L232.223 37.3861Z" fill="#FFE27A"/>
<path d="M235.674 32.4722L234.414 34.8506L242.533 39.1537L243.793 36.7753L235.674 32.4722Z" fill="#FFCEE3"/>
<path d="M221.766 45.6983L218.137 54.14L220.61 55.2033L224.239 46.7615L221.766 45.6983Z" fill="#DC9ECC"/>
<path d="M258.722 35.8674L257.807 38.3987L266.448 41.5238L267.363 38.9925L258.722 35.8674Z" fill="#ADD5EA"/>
<path d="M189.739 35.8649L188.824 38.3962L197.465 41.5214L198.381 38.99L189.739 35.8649Z" fill="#ADD5EA"/>
<path d="M250.334 26.9946L247.742 27.7233L250.23 36.5693L252.821 35.8407L250.334 26.9946Z" fill="#91D6D0"/>
<path d="M166.689 32.4773L165.428 34.8557L173.547 39.1588L174.808 36.7804L166.689 32.4773Z" fill="#FFCEE3"/>
<path d="M196.653 14.8926L195.891 17.474L204.703 20.0781L205.466 17.4967L196.653 14.8926Z" fill="#FFA878"/>
<path d="M181.351 26.9967L178.76 27.7253L181.247 36.5714L183.839 35.8427L181.351 26.9967Z" fill="#91D6D0"/>
<path d="M160.617 7.97201L158.091 8.90039L161.26 17.525L163.787 16.5966L160.617 7.97201Z" fill="#ADD5EA"/>
<path d="M137.073 26.5928L128.227 29.0802L128.955 31.6715L137.801 29.1841L137.073 26.5928Z" fill="#FFE27A"/>
<path d="M165.315 -2.61643L163.969 -0.2854L171.927 4.309L173.273 1.97797L165.315 -2.61643Z" fill="#B4B6DB"/>
<path d="M145.791 3.14501L143.888 5.04834L150.385 11.5457L152.288 9.64241L145.791 3.14501Z" fill="#91D6D0"/>
<path d="M143.786 13.8806L140.661 22.5217L143.192 23.4372L146.317 14.796L143.786 13.8806Z" fill="#FFCEE3"/>
<path d="M187.139 1.89101L186.078 4.36499L194.523 7.9863L195.584 5.51232L187.139 1.89101Z" fill="#FFCEE3"/>
<path d="M134.415 0.175502L131.794 0.784912L133.874 9.7348L136.496 9.12539L134.415 0.175502Z" fill="#FF7E9C"/>
<path d="M152.041 20.5733L148.078 28.8634L150.507 30.0241L154.469 21.7339L152.041 20.5733Z" fill="#FFAFAF"/>
<path d="M164.575 23.3134L156.215 27.1277L157.332 29.5766L165.692 25.7624L164.575 23.3134Z" fill="#DC9ECC"/>
<path d="M127.667 14.8885L126.905 17.4698L135.717 20.074L136.479 17.4926L127.667 14.8885Z" fill="#FFA878"/>
<path d="M181.274 19.7586L172.324 21.8398L172.934 24.4616L181.884 22.3803L181.274 19.7586Z" fill="#FFE27A"/>
<path d="M177.749 4.93819L172.284 12.3251L174.448 13.9261L179.913 6.53923L177.749 4.93819Z" fill="#FFAFAF"/>
<path d="M187.876 14.734L185.66 16.2621L190.877 23.8263L193.092 22.2982L187.876 14.734Z" fill="#FF7E9C"/>
<path d="M145.45 34.6999L143.709 36.7532L150.719 42.6947L152.459 40.6414L145.45 34.6999Z" fill="#91D6D0"/>
<path d="M135.695 34.4109L134.164 43.4711L136.818 43.9195L138.349 34.8593L135.695 34.4109Z" fill="#DC9ECC"/>
<path d="M177.478 42.7539L177.343 45.4421L186.52 45.9025L186.654 43.2143L177.478 42.7539Z" fill="#FF7E9C"/>
<path d="M163.244 37.3819L160.622 37.9913L162.702 46.9412L165.324 46.3318L163.244 37.3819Z" fill="#FFE27A"/>
<path d="M166.689 32.4774L165.428 34.8558L173.547 39.1589L174.808 36.7805L166.689 32.4774Z" fill="#FFCEE3"/>
<path d="M152.783 45.6963L149.153 54.1381L151.626 55.2013L155.256 46.7596L152.783 45.6963Z" fill="#DC9ECC"/>
<path d="M189.739 35.8649L188.824 38.3962L197.465 41.5214L198.381 38.99L189.739 35.8649Z" fill="#ADD5EA"/>
<path d="M120.754 35.869L119.839 38.4003L128.48 41.5254L129.395 38.9941L120.754 35.869Z" fill="#ADD5EA"/>
<path d="M181.351 26.9967L178.76 27.7253L181.247 36.5714L183.839 35.8427L181.351 26.9967Z" fill="#91D6D0"/>
<path d="M97.7061 32.4764L96.4456 34.8549L104.565 39.158L105.825 36.7796L97.7061 32.4764Z" fill="#FFCEE3"/>
<path d="M127.667 14.8885L126.905 17.4698L135.717 20.074L136.479 17.4926L127.667 14.8885Z" fill="#FFA878"/>
<path d="M112.362 27.0006L109.771 27.7292L112.258 36.5753L114.849 35.8467L112.362 27.0006Z" fill="#91D6D0"/>
<path d="M91.639 7.97128L89.1125 8.89966L92.2818 17.5243L94.8082 16.5959L91.639 7.97128Z" fill="#ADD5EA"/>
<path d="M68.09 26.5949L59.2439 29.0823L59.9726 31.6736L68.8186 29.1862L68.09 26.5949Z" fill="#FFE27A"/>
<path d="M96.329 -2.61535L94.9832 -0.284302L102.941 4.3101L104.287 1.97905L96.329 -2.61535Z" fill="#B4B6DB"/>
<path d="M76.8049 3.14685L74.9016 5.05017L81.399 11.5476L83.3023 9.64425L76.8049 3.14685Z" fill="#91D6D0"/>
<path d="M74.8007 13.8845L71.6755 22.5256L74.2068 23.4411L77.332 14.7999L74.8007 13.8845Z" fill="#FFCEE3"/>
<path d="M118.155 1.89687L117.094 4.37085L125.539 7.99216L126.6 5.51818L118.155 1.89687Z" fill="#FFCEE3"/>
<path d="M65.4294 0.172817L62.8076 0.782227L64.888 9.73212L67.5097 9.12271L65.4294 0.172817Z" fill="#FF7E9C"/>
<path d="M83.0608 20.5677L79.0986 28.8578L81.5271 30.0185L85.4893 21.7283L83.0608 20.5677Z" fill="#FFAFAF"/>
<path d="M95.5912 23.3104L87.2312 27.1246L88.3485 29.5736L96.7085 25.7593L95.5912 23.3104Z" fill="#DC9ECC"/>
<path d="M58.6796 14.8908L57.9167 17.4722L66.7288 20.0763L67.4916 17.4949L58.6796 14.8908Z" fill="#FFA878"/>
<path d="M112.295 19.761L103.345 21.8423L103.955 24.464L112.905 22.3828L112.295 19.761Z" fill="#FFE27A"/>
<path d="M108.768 4.93844L103.303 12.3253L105.467 13.9264L110.932 6.53949L108.768 4.93844Z" fill="#FFAFAF"/>
<path d="M118.895 14.7285L116.679 16.2566L121.895 23.8208L124.111 22.2927L118.895 14.7285Z" fill="#FF7E9C"/>
<path d="M76.4646 34.7014L74.7241 36.7546L81.7333 42.6961L83.4738 40.6429L76.4646 34.7014Z" fill="#91D6D0"/>
<path d="M66.7069 34.4119L65.176 43.472L67.8301 43.9205L69.3609 34.8603L66.7069 34.4119Z" fill="#DC9ECC"/>
<path d="M108.494 42.7473L108.359 45.4355L117.536 45.8959L117.671 43.2077L108.494 42.7473Z" fill="#FF7E9C"/>
<path d="M94.2577 37.3791L91.636 37.9885L93.7163 46.9384L96.3381 46.329L94.2577 37.3791Z" fill="#FFE27A"/>
<path d="M97.7061 32.4764L96.4456 34.8549L104.565 39.158L105.825 36.7796L97.7061 32.4764Z" fill="#FFCEE3"/>
<path d="M83.7971 45.7005L80.1675 54.1422L82.6404 55.2054L86.27 46.7637L83.7971 45.7005Z" fill="#DC9ECC"/>
<path d="M120.754 35.8688L119.839 38.4001L128.48 41.5253L129.395 38.9939L120.754 35.8688Z" fill="#ADD5EA"/>
<path d="M51.7709 35.8664L50.8555 38.3977L59.4966 41.5228L60.4121 38.9915L51.7709 35.8664Z" fill="#ADD5EA"/>
<path d="M112.362 27.0006L109.771 27.7292L112.258 36.5753L114.849 35.8467L112.362 27.0006Z" fill="#91D6D0"/>
<path d="M28.7203 32.4816L27.4597 34.86L35.5789 39.1631L36.8395 36.7847L28.7203 32.4816Z" fill="#FFCEE3"/>
<path d="M58.6796 14.8908L57.9167 17.4722L66.7288 20.0763L67.4916 17.4949L58.6796 14.8908Z" fill="#FFA878"/>
<path d="M43.3792 27.0027L40.7878 27.7313L43.2752 36.5774L45.8666 35.8487L43.3792 27.0027Z" fill="#91D6D0"/>
<path d="M22.6544 7.97287L20.1279 8.90125L23.2971 17.5259L25.8236 16.5975L22.6544 7.97287Z" fill="#ADD5EA"/>
<path d="M27.3466 -2.6201L26.0007 -0.289062L33.9582 4.30534L35.3041 1.9743L27.3466 -2.6201Z" fill="#B4B6DB"/>
<path d="M7.82349 3.14379L5.92017 5.04712L12.4176 11.5445L14.3209 9.64119L7.82349 3.14379Z" fill="#91D6D0"/>
<path d="M5.81749 13.882L2.69238 22.5232L5.22369 23.4387L8.3488 14.7975L5.81749 13.882Z" fill="#FFCEE3"/>
<path d="M49.1731 1.89663L48.1123 4.37061L56.5577 7.99191L57.6185 5.51793L49.1731 1.89663Z" fill="#FFCEE3"/>
<path d="M14.0779 20.5683L10.1157 28.8584L12.5442 30.0191L16.5064 21.7289L14.0779 20.5683Z" fill="#FFAFAF"/>
<path d="M26.6014 23.31L18.2415 27.1243L19.3588 29.5732L27.7188 25.7589L26.6014 23.31Z" fill="#DC9ECC"/>
<path d="M43.3088 19.7652L34.3589 21.8464L34.9686 24.4682L43.9185 22.3869L43.3088 19.7652Z" fill="#FFE27A"/>
<path d="M39.7839 4.94418L34.3184 12.3311L36.4822 13.9321L41.9477 6.54522L39.7839 4.94418Z" fill="#FFAFAF"/>
<path d="M49.9075 14.727L47.6917 16.2551L52.9081 23.8193L55.124 22.2912L49.9075 14.727Z" fill="#FF7E9C"/>
<path d="M7.4834 34.6977L5.74292 36.751L12.7521 42.6925L14.4926 40.6392L7.4834 34.6977Z" fill="#91D6D0"/>
<path d="M-2.28116 34.413L-3.81201 43.4731L-1.15796 43.9216L0.372893 34.8614L-2.28116 34.413Z" fill="#DC9ECC"/>
<path d="M39.5094 42.7476L39.3745 45.4358L48.5514 45.8962L48.6862 43.2079L39.5094 42.7476Z" fill="#FF7E9C"/>
<path d="M25.278 37.375L22.6562 37.9844L24.7366 46.9343L27.3583 46.3249L25.278 37.375Z" fill="#FFE27A"/>
<path d="M28.7203 32.4817L27.4597 34.8601L35.5789 39.1632L36.8395 36.7848L28.7203 32.4817Z" fill="#FFCEE3"/>
<path d="M14.8134 45.6984L11.1838 54.1401L13.6567 55.2034L17.2863 46.7616L14.8134 45.6984Z" fill="#DC9ECC"/>
<path d="M51.7709 35.8664L50.8555 38.3977L59.4966 41.5228L60.4121 38.9915L51.7709 35.8664Z" fill="#ADD5EA"/>
<path d="M43.3792 27.0027L40.7878 27.7313L43.2752 36.5774L45.8666 35.8487L43.3792 27.0027Z" fill="#91D6D0"/>
</g>
<g clip-path="url(#clip1_1282_21510)">
<path d="M649.664 32.4733L648.403 34.8517L656.522 39.1548L657.783 36.7764L649.664 32.4733Z" fill="#FFCEE3"/>
<path d="M679.634 14.8947L678.871 17.4761L687.683 20.0802L688.446 17.4988L679.634 14.8947Z" fill="#FFA878"/>
<path d="M664.33 26.991L661.739 27.7196L664.226 36.5657L666.817 35.837L664.33 26.991Z" fill="#91D6D0"/>
<path d="M643.587 7.9714L641.061 8.89978L644.23 17.5244L646.756 16.596L643.587 7.9714Z" fill="#ADD5EA"/>
<path d="M620.051 26.5868L611.205 29.0742L611.934 31.6656L620.78 29.1782L620.051 26.5868Z" fill="#FFE27A"/>
<path d="M648.291 -2.61266L646.945 -0.281616L654.902 4.31279L656.248 1.98174L648.291 -2.61266Z" fill="#B4B6DB"/>
<path d="M628.766 3.14623L626.862 5.04956L633.36 11.547L635.263 9.64363L628.766 3.14623Z" fill="#91D6D0"/>
<path d="M626.761 13.8794L623.636 22.5205L626.167 23.436L629.292 14.7948L626.761 13.8794Z" fill="#FFCEE3"/>
<path d="M670.111 1.88552L669.05 4.3595L677.496 7.9808L678.557 5.50683L670.111 1.88552Z" fill="#FFCEE3"/>
<path d="M617.388 0.182582L614.766 0.791992L616.846 9.74188L619.468 9.13247L617.388 0.182582Z" fill="#FF7E9C"/>
<path d="M635.01 20.5785L631.048 28.8687L633.476 30.0293L637.439 21.7392L635.01 20.5785Z" fill="#FFAFAF"/>
<path d="M647.555 23.3171L639.195 27.1313L640.313 29.5803L648.673 25.766L647.555 23.3171Z" fill="#DC9ECC"/>
<path d="M610.648 14.8905L609.885 17.4719L618.697 20.076L619.46 17.4947L610.648 14.8905Z" fill="#FFA878"/>
<path d="M664.247 19.7522L655.297 21.8335L655.907 24.4553L664.856 22.374L664.247 19.7522Z" fill="#FFE27A"/>
<path d="M660.721 4.93245L655.256 12.3193L657.42 13.9204L662.885 6.5335L660.721 4.93245Z" fill="#FFAFAF"/>
<path d="M670.851 14.7411L668.635 16.2692L673.852 23.8334L676.068 22.3053L670.851 14.7411Z" fill="#FF7E9C"/>
<path d="M628.423 34.7024L626.683 36.7556L633.692 42.6971L635.432 40.6438L628.423 34.7024Z" fill="#91D6D0"/>
<path d="M618.677 34.4157L617.146 43.4758L619.8 43.9243L621.331 34.8641L618.677 34.4157Z" fill="#DC9ECC"/>
<path d="M660.452 42.7603L660.317 45.4485L669.494 45.9088L669.629 43.2206L660.452 42.7603Z" fill="#FF7E9C"/>
<path d="M646.216 37.389L643.594 37.9984L645.675 46.9483L648.296 46.3389L646.216 37.389Z" fill="#FFE27A"/>
<path d="M649.664 32.4733L648.403 34.8517L656.522 39.1548L657.783 36.7764L649.664 32.4733Z" fill="#FFCEE3"/>
<path d="M635.759 45.6942L632.13 54.136L634.603 55.1992L638.232 46.7575L635.759 45.6942Z" fill="#DC9ECC"/>
<path d="M672.715 35.8638L671.799 38.3951L680.44 41.5203L681.356 38.9889L672.715 35.8638Z" fill="#ADD5EA"/>
<path d="M603.729 35.8676L602.814 38.3989L611.455 41.524L612.37 38.9927L603.729 35.8676Z" fill="#ADD5EA"/>
<path d="M664.33 26.991L661.739 27.7196L664.226 36.5657L666.817 35.837L664.33 26.991Z" fill="#91D6D0"/>
<path d="M580.681 32.4724L579.421 34.8508L587.54 39.1539L588.8 36.7755L580.681 32.4724Z" fill="#FFCEE3"/>
<path d="M610.648 14.8905L609.885 17.4719L618.697 20.076L619.46 17.4947L610.648 14.8905Z" fill="#FFA878"/>
<path d="M595.341 26.9949L592.75 27.7235L595.237 36.5696L597.828 35.8409L595.341 26.9949Z" fill="#91D6D0"/>
<path d="M574.609 7.97067L572.083 8.89905L575.252 17.5237L577.778 16.5953L574.609 7.97067Z" fill="#ADD5EA"/>
<path d="M551.069 26.5889L542.223 29.0763L542.952 31.6676L551.798 29.1802L551.069 26.5889Z" fill="#FFE27A"/>
<path d="M579.305 -2.61156L577.959 -0.280518L585.916 4.31388L587.262 1.98284L579.305 -2.61156Z" fill="#B4B6DB"/>
<path d="M559.78 3.14806L557.876 5.05139L564.374 11.5488L566.277 9.64546L559.78 3.14806Z" fill="#91D6D0"/>
<path d="M557.776 13.8833L554.651 22.5244L557.182 23.4399L560.307 14.7987L557.776 13.8833Z" fill="#FFCEE3"/>
<path d="M601.127 1.8915L600.066 4.36548L608.512 7.98678L609.573 5.51281L601.127 1.8915Z" fill="#FFCEE3"/>
<path d="M548.402 0.179897L545.78 0.789307L547.861 9.7392L550.482 9.12979L548.402 0.179897Z" fill="#FF7E9C"/>
<path d="M566.03 20.5729L562.068 28.863L564.497 30.0237L568.459 21.7336L566.03 20.5729Z" fill="#FFAFAF"/>
<path d="M578.572 23.3139L570.212 27.1282L571.329 29.5771L579.689 25.7629L578.572 23.3139Z" fill="#DC9ECC"/>
<path d="M541.66 14.8929L540.897 17.4742L549.71 20.0784L550.472 17.497L541.66 14.8929Z" fill="#FFA878"/>
<path d="M595.268 19.7547L586.318 21.8359L586.927 24.4577L595.877 22.3764L595.268 19.7547Z" fill="#FFE27A"/>
<path d="M591.741 4.9327L586.275 12.3196L588.439 13.9206L593.905 6.53374L591.741 4.9327Z" fill="#FFAFAF"/>
<path d="M601.87 14.7357L599.654 16.2638L604.871 23.828L607.087 22.2999L601.87 14.7357Z" fill="#FF7E9C"/>
<path d="M559.438 34.7038L557.697 36.7571L564.706 42.6986L566.447 40.6453L559.438 34.7038Z" fill="#91D6D0"/>
<path d="M549.689 34.4168L548.158 43.4769L550.812 43.9254L552.343 34.8652L549.689 34.4168Z" fill="#DC9ECC"/>
<path d="M591.469 42.7537L591.334 45.4419L600.511 45.9023L600.645 43.214L591.469 42.7537Z" fill="#FF7E9C"/>
<path d="M577.23 37.3863L574.608 37.9957L576.688 46.9456L579.31 46.3362L577.23 37.3863Z" fill="#FFE27A"/>
<path d="M580.681 32.4724L579.42 34.8508L587.54 39.1539L588.8 36.7755L580.681 32.4724Z" fill="#FFCEE3"/>
<path d="M566.773 45.6985L563.144 54.1403L565.616 55.2035L569.246 46.7618L566.773 45.6985Z" fill="#DC9ECC"/>
<path d="M603.729 35.8676L602.814 38.3989L611.455 41.524L612.37 38.9927L603.729 35.8676Z" fill="#ADD5EA"/>
<path d="M534.746 35.8652L533.831 38.3965L542.472 41.5216L543.387 38.9903L534.746 35.8652Z" fill="#ADD5EA"/>
<path d="M595.341 26.9949L592.749 27.7235L595.237 36.5696L597.828 35.8409L595.341 26.9949Z" fill="#91D6D0"/>
<path d="M511.695 32.4775L510.435 34.856L518.554 39.1591L519.815 36.7807L511.695 32.4775Z" fill="#FFCEE3"/>
<path d="M541.66 14.8929L540.897 17.4742L549.71 20.0784L550.472 17.497L541.66 14.8929Z" fill="#FFA878"/>
<path d="M526.358 26.9969L523.767 27.7256L526.254 36.5716L528.845 35.843L526.358 26.9969Z" fill="#91D6D0"/>
<path d="M505.624 7.97225L503.098 8.90063L506.267 17.5252L508.793 16.5969L505.624 7.97225Z" fill="#ADD5EA"/>
<path d="M482.079 26.593L473.233 29.0804L473.962 31.6718L482.808 29.1844L482.079 26.593Z" fill="#FFE27A"/>
<path d="M510.322 -2.61618L508.976 -0.285156L516.934 4.30925L518.279 1.97822L510.322 -2.61618Z" fill="#B4B6DB"/>
<path d="M490.798 3.14526L488.895 5.04858L495.392 11.546L497.295 9.64265L490.798 3.14526Z" fill="#91D6D0"/>
<path d="M488.793 13.8808L485.668 22.522L488.199 23.4374L491.324 14.7963L488.793 13.8808Z" fill="#FFCEE3"/>
<path d="M532.146 1.89126L531.085 4.36523L539.53 7.98654L540.591 5.51256L532.146 1.89126Z" fill="#FFCEE3"/>
<path d="M479.422 0.175746L476.801 0.785156L478.881 9.73505L481.503 9.12564L479.422 0.175746Z" fill="#FF7E9C"/>
<path d="M497.047 20.5735L493.085 28.8636L495.514 30.0243L499.476 21.7342L497.047 20.5735Z" fill="#FFAFAF"/>
<path d="M509.582 23.3137L501.222 27.1279L502.339 29.5769L510.699 25.7626L509.582 23.3137Z" fill="#DC9ECC"/>
<path d="M472.674 14.8887L471.911 17.4701L480.723 20.0742L481.486 17.4928L472.674 14.8887Z" fill="#FFA878"/>
<path d="M526.281 19.7588L517.331 21.8401L517.941 24.4618L526.891 22.3806L526.281 19.7588Z" fill="#FFE27A"/>
<path d="M522.756 4.93843L517.291 12.3253L519.454 13.9264L524.92 6.53948L522.756 4.93843Z" fill="#FFAFAF"/>
<path d="M532.883 14.7342L530.667 16.2623L535.883 23.8265L538.099 22.2984L532.883 14.7342Z" fill="#FF7E9C"/>
<path d="M490.457 34.7002L488.716 36.7534L495.726 42.6949L497.466 40.6416L490.457 34.7002Z" fill="#91D6D0"/>
<path d="M480.702 34.4111L479.171 43.4713L481.825 43.9198L483.356 34.8596L480.702 34.4111Z" fill="#DC9ECC"/>
<path d="M522.484 42.7541L522.35 45.4424L531.526 45.9027L531.661 43.2145L522.484 42.7541Z" fill="#FF7E9C"/>
<path d="M508.25 37.3822L505.629 37.9916L507.709 46.9415L510.331 46.3321L508.25 37.3822Z" fill="#FFE27A"/>
<path d="M511.695 32.4777L510.435 34.8561L518.554 39.1592L519.815 36.7808L511.695 32.4777Z" fill="#FFCEE3"/>
<path d="M497.79 45.6966L494.16 54.1383L496.633 55.2015L500.263 46.7598L497.79 45.6966Z" fill="#DC9ECC"/>
<path d="M534.746 35.8652L533.831 38.3965L542.472 41.5216L543.387 38.9903L534.746 35.8652Z" fill="#ADD5EA"/>
<path d="M465.761 35.8692L464.845 38.4005L473.487 41.5256L474.402 38.9943L465.761 35.8692Z" fill="#ADD5EA"/>
<path d="M526.358 26.9969L523.767 27.7256L526.254 36.5716L528.845 35.843L526.358 26.9969Z" fill="#91D6D0"/>
<path d="M442.713 32.4767L441.452 34.8551L449.572 39.1582L450.832 36.7798L442.713 32.4767Z" fill="#FFCEE3"/>
<path d="M472.674 14.8887L471.911 17.4701L480.723 20.0742L481.486 17.4928L472.674 14.8887Z" fill="#FFA878"/>
<path d="M457.369 27.0008L454.777 27.7295L457.265 36.5755L459.856 35.8469L457.369 27.0008Z" fill="#91D6D0"/>
<path d="M436.646 7.97152L434.119 8.8999L437.289 17.5245L439.815 16.5961L436.646 7.97152Z" fill="#ADD5EA"/>
<path d="M413.097 26.5951L404.251 29.0825L404.979 31.6739L413.825 29.1864L413.097 26.5951Z" fill="#FFE27A"/>
<path d="M441.336 -2.6151L439.99 -0.284058L447.947 4.31034L449.293 1.9793L441.336 -2.6151Z" fill="#B4B6DB"/>
<path d="M421.812 3.14709L419.908 5.05042L426.406 11.5478L428.309 9.64449L421.812 3.14709Z" fill="#91D6D0"/>
<path d="M419.807 13.8847L416.682 22.5259L419.214 23.4413L422.339 14.8002L419.807 13.8847Z" fill="#FFCEE3"/>
<path d="M463.161 1.89712L462.101 4.37109L470.546 7.9924L471.607 5.51842L463.161 1.89712Z" fill="#FFCEE3"/>
<path d="M410.436 0.173061L407.814 0.782471L409.895 9.73236L412.517 9.12295L410.436 0.173061Z" fill="#FF7E9C"/>
<path d="M428.068 20.5679L424.105 28.858L426.534 30.0187L430.496 21.7286L428.068 20.5679Z" fill="#FFAFAF"/>
<path d="M440.598 23.3106L432.238 27.1249L433.355 29.5738L441.715 25.7595L440.598 23.3106Z" fill="#DC9ECC"/>
<path d="M403.686 14.891L402.924 17.4724L411.736 20.0765L412.498 17.4951L403.686 14.891Z" fill="#FFA878"/>
<path d="M457.302 19.7613L448.352 21.8425L448.961 24.4643L457.911 22.383L457.302 19.7613Z" fill="#FFE27A"/>
<path d="M453.775 4.93869L448.31 12.3256L450.474 13.9266L455.939 6.53973L453.775 4.93869Z" fill="#FFAFAF"/>
<path d="M463.901 14.7287L461.686 16.2568L466.902 23.8211L469.118 22.293L463.901 14.7287Z" fill="#FF7E9C"/>
<path d="M421.471 34.7016L419.731 36.7549L426.74 42.6964L428.481 40.6431L421.471 34.7016Z" fill="#91D6D0"/>
<path d="M411.714 34.4121L410.183 43.4723L412.837 43.9207L414.368 34.8606L411.714 34.4121Z" fill="#DC9ECC"/>
<path d="M453.501 42.7476L453.366 45.4358L462.543 45.8962L462.677 43.2079L453.501 42.7476Z" fill="#FF7E9C"/>
<path d="M439.265 37.3794L436.643 37.9888L438.723 46.9387L441.345 46.3293L439.265 37.3794Z" fill="#FFE27A"/>
<path d="M442.713 32.4767L441.452 34.8551L449.572 39.1582L450.832 36.7798L442.713 32.4767Z" fill="#FFCEE3"/>
<path d="M428.804 45.7007L425.174 54.1425L427.647 55.2057L431.277 46.7639L428.804 45.7007Z" fill="#DC9ECC"/>
<path d="M465.761 35.8691L464.845 38.4004L473.487 41.5255L474.402 38.9942L465.761 35.8691Z" fill="#ADD5EA"/>
<path d="M396.778 35.8666L395.862 38.3979L404.503 41.5231L405.419 38.9917L396.778 35.8666Z" fill="#ADD5EA"/>
<path d="M457.369 27.0008L454.777 27.7295L457.265 36.5755L459.856 35.8469L457.369 27.0008Z" fill="#91D6D0"/>
<path d="M373.727 32.4818L372.467 34.8602L380.586 39.1633L381.846 36.7849L373.727 32.4818Z" fill="#FFCEE3"/>
<path d="M403.686 14.891L402.924 17.4724L411.736 20.0765L412.498 17.4951L403.686 14.891Z" fill="#FFA878"/>
<path d="M388.386 27.0029L385.795 27.7316L388.282 36.5776L390.873 35.849L388.386 27.0029Z" fill="#91D6D0"/>
<path d="M367.661 7.97311L365.135 8.90149L368.304 17.5261L370.83 16.5977L367.661 7.97311Z" fill="#ADD5EA"/>
<path d="M344.108 26.5993L335.262 29.0867L335.99 31.678L344.836 29.1906L344.108 26.5993Z" fill="#FFE27A"/>
<path d="M372.353 -2.61986L371.008 -0.288818L378.965 4.30558L380.311 1.97454L372.353 -2.61986Z" fill="#B4B6DB"/>
<path d="M352.83 3.14404L350.927 5.04736L357.424 11.5448L359.328 9.64144L352.83 3.14404Z" fill="#91D6D0"/>
<path d="M350.824 13.8823L347.699 22.5234L350.231 23.4389L353.356 14.7977L350.824 13.8823Z" fill="#FFCEE3"/>
<path d="M394.18 1.89687L393.119 4.37085L401.565 7.99216L402.625 5.51818L394.18 1.89687Z" fill="#FFCEE3"/>
<path d="M341.457 0.168789L338.835 0.778198L340.916 9.72809L343.537 9.11868L341.457 0.168789Z" fill="#FF7E9C"/>
<path d="M359.085 20.5685L355.123 28.8586L357.551 30.0193L361.513 21.7292L359.085 20.5685Z" fill="#FFAFAF"/>
<path d="M371.608 23.3102L363.248 27.1245L364.366 29.5735L372.726 25.7592L371.608 23.3102Z" fill="#DC9ECC"/>
<path d="M334.701 14.8868L333.938 17.4681L342.75 20.0722L343.513 17.4909L334.701 14.8868Z" fill="#FFA878"/>
<path d="M388.316 19.7654L379.366 21.8467L379.975 24.4684L388.925 22.3872L388.316 19.7654Z" fill="#FFE27A"/>
<path d="M384.791 4.94442L379.325 12.3313L381.489 13.9323L386.955 6.54546L384.791 4.94442Z" fill="#FFAFAF"/>
<path d="M394.914 14.7273L392.698 16.2554L397.915 23.8196L400.131 22.2915L394.914 14.7273Z" fill="#FF7E9C"/>
<path d="M352.49 34.698L350.75 36.7512L357.759 42.6927L359.499 40.6394L352.49 34.698Z" fill="#91D6D0"/>
<path d="M342.726 34.4132L341.195 43.4734L343.849 43.9218L345.38 34.8617L342.726 34.4132Z" fill="#DC9ECC"/>
<path d="M384.516 42.7478L384.381 45.436L393.558 45.8964L393.693 43.2082L384.516 42.7478Z" fill="#FF7E9C"/>
<path d="M370.285 37.3752L367.663 37.9846L369.743 46.9345L372.365 46.3251L370.285 37.3752Z" fill="#FFE27A"/>
<path d="M373.727 32.4819L372.467 34.8604L380.586 39.1635L381.846 36.785L373.727 32.4819Z" fill="#FFCEE3"/>
<path d="M359.82 45.6986L356.191 54.1404L358.664 55.2036L362.293 46.7619L359.82 45.6986Z" fill="#DC9ECC"/>
<path d="M396.778 35.8666L395.862 38.3979L404.503 41.5231L405.419 38.9917L396.778 35.8666Z" fill="#ADD5EA"/>
<path d="M327.792 35.8705L326.877 38.4019L335.518 41.527L336.434 38.9957L327.792 35.8705Z" fill="#ADD5EA"/>
<path d="M388.386 27.0029L385.795 27.7316L388.282 36.5776L390.873 35.849L388.386 27.0029Z" fill="#91D6D0"/>
</g>
<path d="M994.271 32.4717L993.011 34.8501L1001.13 39.1532L1002.39 36.7748L994.271 32.4717Z" fill="#FFCEE3"/>
<path d="M1024.24 14.8931L1023.48 17.4745L1032.29 20.0786L1033.05 17.4972L1024.24 14.8931Z" fill="#FFA878"/>
<path d="M1008.94 26.9894L1006.35 27.718L1008.83 36.5641L1011.43 35.8354L1008.94 26.9894Z" fill="#91D6D0"/>
<path d="M988.195 7.96993L985.669 8.89832L988.838 17.5229L991.364 16.5945L988.195 7.96993Z" fill="#ADD5EA"/>
<path d="M964.659 26.5853L955.813 29.0728L956.542 31.6641L965.388 29.1767L964.659 26.5853Z" fill="#FFE27A"/>
<path d="M992.899 -2.61413L991.553 -0.283081L999.51 4.31132L1000.86 1.98027L992.899 -2.61413Z" fill="#B4B6DB"/>
<path d="M973.374 3.14477L971.471 5.0481L977.968 11.5455L979.871 9.64217L973.374 3.14477Z" fill="#91D6D0"/>
<path d="M971.369 13.8778L968.244 22.5189L970.775 23.4344L973.901 14.7932L971.369 13.8778Z" fill="#FFCEE3"/>
<path d="M1014.72 1.88405L1013.66 4.35803L1022.1 7.97934L1023.16 5.50536L1014.72 1.88405Z" fill="#FFCEE3"/>
<path d="M961.996 0.181117L959.374 0.790527L961.454 9.74042L964.076 9.13101L961.996 0.181117Z" fill="#FF7E9C"/>
<path d="M979.618 20.5769L975.656 28.8671L978.084 30.0277L982.047 21.7376L979.618 20.5769Z" fill="#FFAFAF"/>
<path d="M992.163 23.3155L983.803 27.1298L984.921 29.5787L993.281 25.7644L992.163 23.3155Z" fill="#DC9ECC"/>
<path d="M955.256 14.8891L954.493 17.4705L963.305 20.0746L964.068 17.4932L955.256 14.8891Z" fill="#FFA878"/>
<path d="M1008.85 19.7506L999.905 21.8319L1000.51 24.4537L1009.46 22.3724L1008.85 19.7506Z" fill="#FFE27A"/>
<path d="M1005.33 4.93087L999.864 12.3177L1002.03 13.9188L1007.49 6.53191L1005.33 4.93087Z" fill="#FFAFAF"/>
<path d="M1015.46 14.7396L1013.24 16.2677L1018.46 23.8319L1020.68 22.3038L1015.46 14.7396Z" fill="#FF7E9C"/>
<path d="M973.031 34.7006L971.29 36.7539L978.3 42.6954L980.04 40.6421L973.031 34.7006Z" fill="#91D6D0"/>
<path d="M963.284 34.4141L961.754 43.4742L964.408 43.9227L965.938 34.8625L963.284 34.4141Z" fill="#DC9ECC"/>
<path d="M1005.06 42.7587L1004.93 45.4469L1014.1 45.9073L1014.24 43.219L1005.06 42.7587Z" fill="#FF7E9C"/>
<path d="M990.824 37.3874L988.202 37.9968L990.282 46.9467L992.904 46.3373L990.824 37.3874Z" fill="#FFE27A"/>
<path d="M994.271 32.4717L993.011 34.8501L1001.13 39.1532L1002.39 36.7748L994.271 32.4717Z" fill="#FFCEE3"/>
<path d="M980.367 45.6925L976.738 54.1343L979.21 55.1975L982.84 46.7558L980.367 45.6925Z" fill="#DC9ECC"/>
<path d="M1017.32 35.8621L1016.41 38.3934L1025.05 41.5185L1025.96 38.9872L1017.32 35.8621Z" fill="#ADD5EA"/>
<path d="M948.337 35.8662L947.422 38.3975L956.063 41.5226L956.978 38.9913L948.337 35.8662Z" fill="#ADD5EA"/>
<path d="M1008.94 26.9895L1006.35 27.7181L1008.83 36.5642L1011.43 35.8355L1008.94 26.9895Z" fill="#91D6D0"/>
<path d="M925.289 32.4708L924.028 34.8492L932.148 39.1524L933.408 36.7739L925.289 32.4708Z" fill="#FFCEE3"/>
<path d="M955.256 14.8888L954.493 17.4702L963.305 20.0743L964.068 17.4929L955.256 14.8888Z" fill="#FFA878"/>
<path d="M939.949 26.9931L937.358 27.7218L939.845 36.5679L942.436 35.8392L939.949 26.9931Z" fill="#91D6D0"/>
<path d="M919.217 7.96884L916.691 8.89722L919.86 17.5218L922.386 16.5934L919.217 7.96884Z" fill="#ADD5EA"/>
<path d="M895.677 26.5872L886.831 29.0746L887.56 31.6659L896.406 29.1785L895.677 26.5872Z" fill="#FFE27A"/>
<path d="M923.913 -2.61327L922.567 -0.282227L930.524 4.31218L931.87 1.98113L923.913 -2.61327Z" fill="#B4B6DB"/>
<path d="M904.388 3.14635L902.484 5.04968L908.982 11.5471L910.885 9.64375L904.388 3.14635Z" fill="#91D6D0"/>
<path d="M902.384 13.8816L899.259 22.5227L901.79 23.4382L904.915 14.797L902.384 13.8816Z" fill="#FFCEE3"/>
<path d="M945.735 1.88967L944.674 4.36365L953.12 7.98495L954.181 5.51098L945.735 1.88967Z" fill="#FFCEE3"/>
<path d="M893.01 0.178188L890.388 0.787598L892.469 9.73749L895.09 9.12808L893.01 0.178188Z" fill="#FF7E9C"/>
<path d="M910.638 20.5712L906.676 28.8613L909.105 30.022L913.067 21.7319L910.638 20.5712Z" fill="#FFAFAF"/>
<path d="M923.18 23.3122L914.82 27.1265L915.937 29.5754L924.297 25.7611L923.18 23.3122Z" fill="#DC9ECC"/>
<path d="M886.268 14.8912L885.505 17.4725L894.318 20.0766L895.08 17.4953L886.268 14.8912Z" fill="#FFA878"/>
<path d="M939.875 19.7528L930.926 21.8341L931.535 24.4559L940.485 22.3746L939.875 19.7528Z" fill="#FFE27A"/>
<path d="M936.349 4.93099L930.884 12.3179L933.047 13.9189L938.513 6.53203L936.349 4.93099Z" fill="#FFAFAF"/>
<path d="M946.478 14.7339L944.262 16.262L949.479 23.8262L951.694 22.2981L946.478 14.7339Z" fill="#FF7E9C"/>
<path d="M904.046 34.7021L902.305 36.7554L909.314 42.6968L911.055 40.6436L904.046 34.7021Z" fill="#91D6D0"/>
<path d="M894.296 34.4151L892.766 43.4752L895.42 43.9237L896.951 34.8635L894.296 34.4151Z" fill="#DC9ECC"/>
<path d="M936.076 42.7521L935.942 45.4403L945.118 45.9007L945.253 43.2124L936.076 42.7521Z" fill="#FF7E9C"/>
<path d="M921.838 37.3846L919.216 37.994L921.297 46.9439L923.918 46.3345L921.838 37.3846Z" fill="#FFE27A"/>
<path d="M925.289 32.4707L924.029 34.8491L932.148 39.1522L933.408 36.7738L925.289 32.4707Z" fill="#FFCEE3"/>
<path d="M911.381 45.6968L907.752 54.1385L910.224 55.2018L913.854 46.76L911.381 45.6968Z" fill="#DC9ECC"/>
<path d="M948.337 35.8659L947.422 38.3972L956.063 41.5223L956.978 38.991L948.337 35.8659Z" fill="#ADD5EA"/>
<path d="M879.354 35.8632L878.439 38.3945L887.08 41.5196L887.996 38.9883L879.354 35.8632Z" fill="#ADD5EA"/>
<path d="M939.949 26.9931L937.357 27.7218L939.845 36.5679L942.436 35.8392L939.949 26.9931Z" fill="#91D6D0"/>
<path d="M856.303 32.4758L855.043 34.8542L863.162 39.1574L864.422 36.7789L856.303 32.4758Z" fill="#FFCEE3"/>
<path d="M886.268 14.8913L885.506 17.4727L894.318 20.0768L895.081 17.4954L886.268 14.8913Z" fill="#FFA878"/>
<path d="M870.966 26.9951L868.375 27.7238L870.862 36.5698L873.454 35.8412L870.966 26.9951Z" fill="#91D6D0"/>
<path d="M850.232 7.97054L847.706 8.89893L850.875 17.5235L853.401 16.5952L850.232 7.97054Z" fill="#ADD5EA"/>
<path d="M826.688 26.5912L817.842 29.0786L818.57 31.67L827.416 29.1825L826.688 26.5912Z" fill="#FFE27A"/>
<path d="M854.93 -2.61802L853.584 -0.286987L861.542 4.30741L862.888 1.97639L854.93 -2.61802Z" fill="#B4B6DB"/>
<path d="M835.406 3.1433L833.503 5.04663L840 11.544L841.904 9.6407L835.406 3.1433Z" fill="#91D6D0"/>
<path d="M833.401 13.879L830.276 22.5201L832.807 23.4356L835.932 14.7945L833.401 13.879Z" fill="#FFCEE3"/>
<path d="M876.754 1.88955L875.693 4.36353L884.138 7.98483L885.199 5.51085L876.754 1.88955Z" fill="#FFCEE3"/>
<path d="M824.03 0.173915L821.409 0.783325L823.489 9.73322L826.111 9.12381L824.03 0.173915Z" fill="#FF7E9C"/>
<path d="M841.656 20.5717L837.693 28.8618L840.122 30.0225L844.084 21.7324L841.656 20.5717Z" fill="#FFAFAF"/>
<path d="M854.19 23.3119L845.83 27.1262L846.947 29.5752L855.307 25.7609L854.19 23.3119Z" fill="#DC9ECC"/>
<path d="M817.282 14.887L816.52 17.4684L825.332 20.0725L826.094 17.4911L817.282 14.887Z" fill="#FFA878"/>
<path d="M870.889 19.7571L861.939 21.8384L862.549 24.4601L871.499 22.3789L870.889 19.7571Z" fill="#FFE27A"/>
<path d="M867.364 4.9366L861.899 12.3235L864.063 13.9245L869.528 6.53765L867.364 4.9366Z" fill="#FFAFAF"/>
<path d="M877.491 14.7324L875.275 16.2605L880.492 23.8247L882.708 22.2966L877.491 14.7324Z" fill="#FF7E9C"/>
<path d="M835.065 34.6982L833.324 36.7515L840.333 42.6929L842.074 40.6397L835.065 34.6982Z" fill="#91D6D0"/>
<path d="M825.31 34.4092L823.779 43.4694L826.433 43.9178L827.964 34.8576L825.31 34.4092Z" fill="#DC9ECC"/>
<path d="M867.092 42.7523L866.958 45.4406L876.135 45.9009L876.269 43.2127L867.092 42.7523Z" fill="#FF7E9C"/>
<path d="M852.859 37.3802L850.237 37.9896L852.317 46.9395L854.939 46.3301L852.859 37.3802Z" fill="#FFE27A"/>
<path d="M856.303 32.4758L855.043 34.8542L863.162 39.1574L864.422 36.7789L856.303 32.4758Z" fill="#FFCEE3"/>
<path d="M842.398 45.6947L838.768 54.1365L841.241 55.1997L844.871 46.758L842.398 45.6947Z" fill="#DC9ECC"/>
<path d="M879.354 35.8632L878.439 38.3945L887.08 41.5196L887.995 38.9883L879.354 35.8632Z" fill="#ADD5EA"/>
<path d="M810.369 35.8675L809.454 38.3988L818.095 41.5239L819.01 38.9926L810.369 35.8675Z" fill="#ADD5EA"/>
<path d="M870.966 26.9953L868.375 27.724L870.862 36.5701L873.454 35.8414L870.966 26.9953Z" fill="#91D6D0"/>
<path d="M787.321 32.4751L786.06 34.8535L794.18 39.1566L795.44 36.7782L787.321 32.4751Z" fill="#FFCEE3"/>
<path d="M817.282 14.8871L816.52 17.4685L825.332 20.0726L826.094 17.4912L817.282 14.8871Z" fill="#FFA878"/>
<path d="M801.977 26.999L799.385 27.7277L801.873 36.5737L804.464 35.8451L801.977 26.999Z" fill="#91D6D0"/>
<path d="M781.254 7.96957L778.728 8.89795L781.897 17.5226L784.423 16.5942L781.254 7.96957Z" fill="#ADD5EA"/>
<path d="M757.705 26.5933L748.859 29.0807L749.588 31.672L758.434 29.1846L757.705 26.5933Z" fill="#FFE27A"/>
<path d="M785.944 -2.61706L784.598 -0.286011L792.556 4.30839L793.902 1.97734L785.944 -2.61706Z" fill="#B4B6DB"/>
<path d="M766.42 3.14526L764.517 5.04858L771.014 11.546L772.917 9.64266L766.42 3.14526Z" fill="#91D6D0"/>
<path d="M764.416 13.8829L761.291 22.524L763.822 23.4395L766.947 14.7984L764.416 13.8829Z" fill="#FFCEE3"/>
<path d="M807.77 1.89516L806.709 4.36914L815.154 7.99045L816.215 5.51647L807.77 1.89516Z" fill="#FFCEE3"/>
<path d="M755.045 0.171108L752.423 0.780518L754.503 9.73041L757.125 9.121L755.045 0.171108Z" fill="#FF7E9C"/>
<path d="M772.676 20.5661L768.714 28.8562L771.142 30.0169L775.104 21.7267L772.676 20.5661Z" fill="#FFAFAF"/>
<path d="M785.206 23.3086L776.846 27.1229L777.964 29.5719L786.324 25.7576L785.206 23.3086Z" fill="#DC9ECC"/>
<path d="M748.295 14.8891L747.532 17.4705L756.344 20.0746L757.107 17.4932L748.295 14.8891Z" fill="#FFA878"/>
<path d="M801.91 19.7594L792.96 21.8407L793.57 24.4625L802.52 22.3812L801.91 19.7594Z" fill="#FFE27A"/>
<path d="M798.384 4.93685L792.918 12.3237L795.082 13.9248L800.548 6.5379L798.384 4.93685Z" fill="#FFAFAF"/>
<path d="M808.51 14.7269L806.294 16.255L811.51 23.8192L813.726 22.2911L808.51 14.7269Z" fill="#FF7E9C"/>
<path d="M766.079 34.6996L764.339 36.7528L771.348 42.6943L773.089 40.641L766.079 34.6996Z" fill="#91D6D0"/>
<path d="M756.322 34.4101L754.791 43.4702L757.445 43.9187L758.976 34.8585L756.322 34.4101Z" fill="#DC9ECC"/>
<path d="M798.108 42.7455L797.974 45.4337L807.15 45.8941L807.285 43.2058L798.108 42.7455Z" fill="#FF7E9C"/>
<path d="M783.872 37.3774L781.251 37.9868L783.331 46.9367L785.953 46.3273L783.872 37.3774Z" fill="#FFE27A"/>
<path d="M787.321 32.4746L786.06 34.853L794.18 39.1561L795.44 36.7777L787.321 32.4746Z" fill="#FFCEE3"/>
<path d="M773.412 45.6985L769.782 54.1403L772.255 55.2035L775.885 46.7617L773.412 45.6985Z" fill="#DC9ECC"/>
<path d="M810.369 35.8669L809.453 38.3982L818.095 41.5233L819.01 38.992L810.369 35.8669Z" fill="#ADD5EA"/>
<path d="M741.386 35.8647L740.47 38.396L749.112 41.5211L750.027 38.9898L741.386 35.8647Z" fill="#ADD5EA"/>
<path d="M801.977 26.9989L799.385 27.7275L801.873 36.5736L804.464 35.8449L801.977 26.9989Z" fill="#91D6D0"/>
<path d="M718.335 32.4802L717.075 34.8586L725.194 39.1618L726.454 36.7833L718.335 32.4802Z" fill="#FFCEE3"/>
<path d="M748.295 14.8892L747.532 17.4706L756.344 20.0747L757.107 17.4933L748.295 14.8892Z" fill="#FFA878"/>
<path d="M732.994 27.001L730.403 27.7296L732.89 36.5757L735.482 35.847L732.994 27.001Z" fill="#91D6D0"/>
<path d="M712.269 7.97128L709.743 8.89966L712.912 17.5243L715.439 16.5959L712.269 7.97128Z" fill="#ADD5EA"/>
<path d="M688.716 26.5974L679.87 29.0848L680.598 31.6762L689.444 29.1888L688.716 26.5974Z" fill="#FFE27A"/>
<path d="M716.961 -2.62169L715.615 -0.290649L723.573 4.30375L724.919 1.97271L716.961 -2.62169Z" fill="#B4B6DB"/>
<path d="M697.438 3.14221L695.535 5.04553L702.032 11.5429L703.936 9.6396L697.438 3.14221Z" fill="#91D6D0"/>
<path d="M695.432 13.8805L692.307 22.5216L694.839 23.4371L697.964 14.7959L695.432 13.8805Z" fill="#FFCEE3"/>
<path d="M738.788 1.89504L737.727 4.36902L746.173 7.99032L747.234 5.51635L738.788 1.89504Z" fill="#FFCEE3"/>
<path d="M686.065 0.166958L683.443 0.776367L685.523 9.72626L688.145 9.11685L686.065 0.166958Z" fill="#FF7E9C"/>
<path d="M703.693 20.5666L699.731 28.8567L702.159 30.0174L706.121 21.7272L703.693 20.5666Z" fill="#FFAFAF"/>
<path d="M716.216 23.3084L707.856 27.1227L708.974 29.5716L717.334 25.7574L716.216 23.3084Z" fill="#DC9ECC"/>
<path d="M679.308 14.8849L678.546 17.4663L687.358 20.0704L688.121 17.489L679.308 14.8849Z" fill="#FFA878"/>
<path d="M732.924 19.7636L723.974 21.8448L724.583 24.4666L733.533 22.3853L732.924 19.7636Z" fill="#FFE27A"/>
<path d="M729.399 4.94247L723.933 12.3293L726.097 13.9304L731.562 6.54351L729.399 4.94247Z" fill="#FFAFAF"/>
<path d="M739.522 14.7254L737.307 16.2535L742.523 23.8178L744.739 22.2897L739.522 14.7254Z" fill="#FF7E9C"/>
<path d="M697.098 34.6961L695.358 36.7494L702.367 42.6909L704.108 40.6376L697.098 34.6961Z" fill="#91D6D0"/>
<path d="M687.334 34.4115L685.803 43.4717L688.457 43.9201L689.988 34.86L687.334 34.4115Z" fill="#DC9ECC"/>
<path d="M729.125 42.7461L728.99 45.4343L738.167 45.8947L738.301 43.2064L729.125 42.7461Z" fill="#FF7E9C"/>
<path d="M714.893 37.3735L712.271 37.9829L714.352 46.9328L716.974 46.3234L714.893 37.3735Z" fill="#FFE27A"/>
<path d="M718.335 32.4802L717.075 34.8586L725.194 39.1618L726.455 36.7833L718.335 32.4802Z" fill="#FFCEE3"/>
<path d="M704.429 45.6969L700.799 54.1387L703.272 55.2019L706.902 46.7602L704.429 45.6969Z" fill="#DC9ECC"/>
<path d="M741.386 35.8648L740.47 38.3961L749.112 41.5212L750.027 38.9899L741.386 35.8648Z" fill="#ADD5EA"/>
<path d="M672.401 35.8686L671.485 38.3999L680.126 41.525L681.042 38.9937L672.401 35.8686Z" fill="#ADD5EA"/>
<path d="M732.994 27.0011L730.403 27.7297L732.89 36.5758L735.482 35.8471L732.994 27.0011Z" fill="#91D6D0"/>
<path d="M1339.28 32.4717L1338.02 34.8501L1346.14 39.1532L1347.4 36.7748L1339.28 32.4717Z" fill="#FFCEE3"/>
<path d="M1353.95 26.9894L1351.35 27.718L1353.84 36.5641L1356.43 35.8354L1353.95 26.9894Z" fill="#91D6D0"/>
<path d="M1333.2 7.96993L1330.68 8.89832L1333.85 17.5229L1336.37 16.5945L1333.2 7.96993Z" fill="#ADD5EA"/>
<path d="M1309.67 26.5853L1300.82 29.0728L1301.55 31.6641L1310.4 29.1767L1309.67 26.5853Z" fill="#FFE27A"/>
<path d="M1337.91 -2.61413L1336.56 -0.283081L1344.52 4.31132L1345.86 1.98027L1337.91 -2.61413Z" fill="#B4B6DB"/>
<path d="M1318.38 3.14477L1316.48 5.0481L1322.98 11.5455L1324.88 9.64217L1318.38 3.14477Z" fill="#91D6D0"/>
<path d="M1316.38 13.8778L1313.25 22.5189L1315.78 23.4344L1318.91 14.7932L1316.38 13.8778Z" fill="#FFCEE3"/>
<path d="M1359.73 1.88405L1358.67 4.35803L1367.11 7.97934L1368.17 5.50536L1359.73 1.88405Z" fill="#FFCEE3"/>
<path d="M1307 0.181117L1304.38 0.790527L1306.46 9.74042L1309.08 9.13101L1307 0.181117Z" fill="#FF7E9C"/>
<path d="M1324.63 20.5769L1320.66 28.8671L1323.09 30.0277L1327.05 21.7376L1324.63 20.5769Z" fill="#FFAFAF"/>
<path d="M1337.17 23.3155L1328.81 27.1298L1329.93 29.5787L1338.29 25.7644L1337.17 23.3155Z" fill="#DC9ECC"/>
<path d="M1300.26 14.8891L1299.5 17.4705L1308.31 20.0746L1309.08 17.4932L1300.26 14.8891Z" fill="#FFA878"/>
<path d="M1353.86 19.7506L1344.91 21.8319L1345.52 24.4537L1354.47 22.3724L1353.86 19.7506Z" fill="#FFE27A"/>
<path d="M1350.34 4.93087L1344.87 12.3177L1347.04 13.9188L1352.5 6.53191L1350.34 4.93087Z" fill="#FFAFAF"/>
<path d="M1360.47 14.7396L1358.25 16.2677L1363.47 23.8319L1365.68 22.3038L1360.47 14.7396Z" fill="#FF7E9C"/>
<path d="M1318.04 34.7006L1316.3 36.7539L1323.31 42.6954L1325.05 40.6421L1318.04 34.7006Z" fill="#91D6D0"/>
<path d="M1308.29 34.4141L1306.76 43.4742L1309.42 43.9227L1310.95 34.8625L1308.29 34.4141Z" fill="#DC9ECC"/>
<path d="M1350.07 42.7587L1349.93 45.4469L1359.11 45.9073L1359.24 43.219L1350.07 42.7587Z" fill="#FF7E9C"/>
<path d="M1335.83 37.3874L1333.21 37.9968L1335.29 46.9467L1337.91 46.3373L1335.83 37.3874Z" fill="#FFE27A"/>
<path d="M1339.28 32.4717L1338.02 34.8501L1346.14 39.1532L1347.4 36.7748L1339.28 32.4717Z" fill="#FFCEE3"/>
<path d="M1325.37 45.6925L1321.74 54.1343L1324.22 55.1975L1327.85 46.7558L1325.37 45.6925Z" fill="#DC9ECC"/>
<path d="M1362.33 35.8621L1361.41 38.3934L1370.06 41.5185L1370.97 38.9872L1362.33 35.8621Z" fill="#ADD5EA"/>
<path d="M1293.34 35.8662L1292.43 38.3975L1301.07 41.5226L1301.99 38.9913L1293.34 35.8662Z" fill="#ADD5EA"/>
<path d="M1353.95 26.9895L1351.35 27.7181L1353.84 36.5642L1356.43 35.8355L1353.95 26.9895Z" fill="#91D6D0"/>
<path d="M1270.3 32.4708L1269.04 34.8492L1277.15 39.1524L1278.42 36.7739L1270.3 32.4708Z" fill="#FFCEE3"/>
<path d="M1300.26 14.8888L1299.5 17.4702L1308.31 20.0743L1309.08 17.4929L1300.26 14.8888Z" fill="#FFA878"/>
<path d="M1284.96 26.9931L1282.36 27.7218L1284.85 36.5679L1287.44 35.8392L1284.96 26.9931Z" fill="#91D6D0"/>
<path d="M1264.22 7.96884L1261.7 8.89722L1264.87 17.5218L1267.39 16.5934L1264.22 7.96884Z" fill="#ADD5EA"/>
<path d="M1240.68 26.5872L1231.84 29.0746L1232.57 31.6659L1241.41 29.1785L1240.68 26.5872Z" fill="#FFE27A"/>
<path d="M1268.92 -2.61327L1267.57 -0.282227L1275.53 4.31218L1276.88 1.98113L1268.92 -2.61327Z" fill="#B4B6DB"/>
<path d="M1249.39 3.14635L1247.49 5.04968L1253.99 11.5471L1255.89 9.64375L1249.39 3.14635Z" fill="#91D6D0"/>
<path d="M1247.39 13.8816L1244.27 22.5227L1246.8 23.4382L1249.92 14.797L1247.39 13.8816Z" fill="#FFCEE3"/>
<path d="M1290.74 1.88967L1289.68 4.36365L1298.13 7.98495L1299.19 5.51098L1290.74 1.88967Z" fill="#FFCEE3"/>
<path d="M1238.02 0.178188L1235.4 0.787598L1237.48 9.73749L1240.1 9.12808L1238.02 0.178188Z" fill="#FF7E9C"/>
<path d="M1255.64 20.5712L1251.68 28.8613L1254.11 30.022L1258.07 21.7319L1255.64 20.5712Z" fill="#FFAFAF"/>
<path d="M1268.19 23.3122L1259.83 27.1265L1260.94 29.5754L1269.3 25.7611L1268.19 23.3122Z" fill="#DC9ECC"/>
<path d="M1231.27 14.8912L1230.51 17.4725L1239.32 20.0766L1240.09 17.4953L1231.27 14.8912Z" fill="#FFA878"/>
<path d="M1284.88 19.7528L1275.93 21.8341L1276.54 24.4559L1285.49 22.3746L1284.88 19.7528Z" fill="#FFE27A"/>
<path d="M1281.36 4.93099L1275.89 12.3179L1278.05 13.9189L1283.52 6.53203L1281.36 4.93099Z" fill="#FFAFAF"/>
<path d="M1291.48 14.7339L1289.27 16.262L1294.49 23.8262L1296.7 22.2981L1291.48 14.7339Z" fill="#FF7E9C"/>
<path d="M1249.05 34.7021L1247.31 36.7554L1254.32 42.6968L1256.06 40.6436L1249.05 34.7021Z" fill="#91D6D0"/>
<path d="M1239.3 34.4151L1237.77 43.4752L1240.43 43.9237L1241.96 34.8635L1239.3 34.4151Z" fill="#DC9ECC"/>
<path d="M1281.08 42.7521L1280.95 45.4403L1290.13 45.9007L1290.26 43.2124L1281.08 42.7521Z" fill="#FF7E9C"/>
<path d="M1266.85 37.3846L1264.22 37.994L1266.3 46.9439L1268.93 46.3345L1266.85 37.3846Z" fill="#FFE27A"/>
<path d="M1270.3 32.4707L1269.04 34.8491L1277.15 39.1522L1278.42 36.7738L1270.3 32.4707Z" fill="#FFCEE3"/>
<path d="M1256.39 45.6968L1252.76 54.1385L1255.23 55.2018L1258.86 46.76L1256.39 45.6968Z" fill="#DC9ECC"/>
<path d="M1293.34 35.8659L1292.43 38.3972L1301.07 41.5223L1301.99 38.991L1293.34 35.8659Z" fill="#ADD5EA"/>
<path d="M1224.36 35.8632L1223.45 38.3945L1232.09 41.5196L1233 38.9883L1224.36 35.8632Z" fill="#ADD5EA"/>
<path d="M1284.96 26.9931L1282.36 27.7218L1284.85 36.5679L1287.44 35.8392L1284.96 26.9931Z" fill="#91D6D0"/>
<path d="M1201.31 32.4758L1200.05 34.8542L1208.17 39.1574L1209.43 36.7789L1201.31 32.4758Z" fill="#FFCEE3"/>
<path d="M1231.27 14.8913L1230.51 17.4727L1239.32 20.0768L1240.09 17.4954L1231.27 14.8913Z" fill="#FFA878"/>
<path d="M1215.97 26.9951L1213.38 27.7238L1215.87 36.5698L1218.46 35.8412L1215.97 26.9951Z" fill="#91D6D0"/>
<path d="M1195.24 7.97054L1192.71 8.89893L1195.88 17.5235L1198.41 16.5952L1195.24 7.97054Z" fill="#ADD5EA"/>
<path d="M1171.69 26.5912L1162.85 29.0786L1163.58 31.67L1172.42 29.1825L1171.69 26.5912Z" fill="#FFE27A"/>
<path d="M1199.94 -2.61802L1198.59 -0.286987L1206.55 4.30741L1207.89 1.97639L1199.94 -2.61802Z" fill="#B4B6DB"/>
<path d="M1180.41 3.1433L1178.51 5.04663L1185.01 11.544L1186.91 9.6407L1180.41 3.1433Z" fill="#91D6D0"/>
<path d="M1178.41 13.879L1175.28 22.5201L1177.81 23.4356L1180.94 14.7945L1178.41 13.879Z" fill="#FFCEE3"/>
<path d="M1221.76 1.88955L1220.7 4.36353L1229.15 7.98483L1230.21 5.51085L1221.76 1.88955Z" fill="#FFCEE3"/>
<path d="M1169.04 0.173915L1166.42 0.783325L1168.5 9.73322L1171.12 9.12381L1169.04 0.173915Z" fill="#FF7E9C"/>
<path d="M1186.66 20.5717L1182.7 28.8618L1185.13 30.0225L1189.09 21.7324L1186.66 20.5717Z" fill="#FFAFAF"/>
<path d="M1199.2 23.3119L1190.84 27.1262L1191.95 29.5752L1200.31 25.7609L1199.2 23.3119Z" fill="#DC9ECC"/>
<path d="M1162.29 14.887L1161.53 17.4684L1170.34 20.0725L1171.1 17.4911L1162.29 14.887Z" fill="#FFA878"/>
<path d="M1215.9 19.7571L1206.95 21.8384L1207.56 24.4601L1216.51 22.3789L1215.9 19.7571Z" fill="#FFE27A"/>
<path d="M1212.37 4.9366L1206.91 12.3235L1209.07 13.9245L1214.54 6.53765L1212.37 4.9366Z" fill="#FFAFAF"/>
<path d="M1222.5 14.7324L1220.28 16.2605L1225.5 23.8247L1227.71 22.2966L1222.5 14.7324Z" fill="#FF7E9C"/>
<path d="M1180.07 34.6982L1178.33 36.7515L1185.34 42.6929L1187.08 40.6397L1180.07 34.6982Z" fill="#91D6D0"/>
<path d="M1170.32 34.4092L1168.79 43.4694L1171.44 43.9178L1172.97 34.8576L1170.32 34.4092Z" fill="#DC9ECC"/>
<path d="M1212.1 42.7523L1211.96 45.4406L1221.14 45.9009L1221.28 43.2127L1212.1 42.7523Z" fill="#FF7E9C"/>
<path d="M1197.87 37.3802L1195.24 37.9896L1197.32 46.9395L1199.95 46.3301L1197.87 37.3802Z" fill="#FFE27A"/>
<path d="M1201.31 32.4758L1200.05 34.8542L1208.17 39.1574L1209.43 36.7789L1201.31 32.4758Z" fill="#FFCEE3"/>
<path d="M1187.4 45.6947L1183.78 54.1365L1186.25 55.1997L1189.88 46.758L1187.4 45.6947Z" fill="#DC9ECC"/>
<path d="M1224.36 35.8632L1223.45 38.3945L1232.09 41.5196L1233 38.9883L1224.36 35.8632Z" fill="#ADD5EA"/>
<path d="M1155.38 35.8675L1154.46 38.3988L1163.1 41.5239L1164.02 38.9926L1155.38 35.8675Z" fill="#ADD5EA"/>
<path d="M1215.97 26.9953L1213.38 27.724L1215.87 36.5701L1218.46 35.8414L1215.97 26.9953Z" fill="#91D6D0"/>
<path d="M1132.33 32.4751L1131.07 34.8535L1139.19 39.1566L1140.45 36.7782L1132.33 32.4751Z" fill="#FFCEE3"/>
<path d="M1162.29 14.8871L1161.53 17.4685L1170.34 20.0726L1171.1 17.4912L1162.29 14.8871Z" fill="#FFA878"/>
<path d="M1146.98 26.999L1144.39 27.7277L1146.88 36.5737L1149.47 35.8451L1146.98 26.999Z" fill="#91D6D0"/>
<path d="M1126.26 7.96957L1123.74 8.89795L1126.9 17.5226L1129.43 16.5942L1126.26 7.96957Z" fill="#ADD5EA"/>
<path d="M1102.71 26.5933L1093.87 29.0807L1094.6 31.672L1103.44 29.1846L1102.71 26.5933Z" fill="#FFE27A"/>
<path d="M1130.95 -2.61706L1129.61 -0.286011L1137.56 4.30839L1138.91 1.97734L1130.95 -2.61706Z" fill="#B4B6DB"/>
<path d="M1111.43 3.14526L1109.52 5.04858L1116.02 11.546L1117.92 9.64266L1111.43 3.14526Z" fill="#91D6D0"/>
<path d="M1109.42 13.8829L1106.3 22.524L1108.83 23.4395L1111.95 14.7984L1109.42 13.8829Z" fill="#FFCEE3"/>
<path d="M1152.78 1.89516L1151.72 4.36914L1160.16 7.99045L1161.22 5.51647L1152.78 1.89516Z" fill="#FFCEE3"/>
<path d="M1100.05 0.171108L1097.43 0.780518L1099.51 9.73041L1102.13 9.121L1100.05 0.171108Z" fill="#FF7E9C"/>
<path d="M1117.68 20.5661L1113.72 28.8562L1116.15 30.0169L1120.11 21.7267L1117.68 20.5661Z" fill="#FFAFAF"/>
<path d="M1130.21 23.3086L1121.85 27.1229L1122.97 29.5719L1131.33 25.7576L1130.21 23.3086Z" fill="#DC9ECC"/>
<path d="M1093.3 14.8891L1092.54 17.4705L1101.35 20.0746L1102.11 17.4932L1093.3 14.8891Z" fill="#FFA878"/>
<path d="M1146.92 19.7594L1137.97 21.8407L1138.58 24.4625L1147.53 22.3812L1146.92 19.7594Z" fill="#FFE27A"/>
<path d="M1143.39 4.93685L1137.93 12.3237L1140.09 13.9248L1145.55 6.5379L1143.39 4.93685Z" fill="#FFAFAF"/>
<path d="M1153.52 14.7269L1151.3 16.255L1156.52 23.8192L1158.73 22.2911L1153.52 14.7269Z" fill="#FF7E9C"/>
<path d="M1111.09 34.6996L1109.35 36.7528L1116.35 42.6943L1118.1 40.641L1111.09 34.6996Z" fill="#91D6D0"/>
<path d="M1101.33 34.4101L1099.8 43.4702L1102.45 43.9187L1103.98 34.8585L1101.33 34.4101Z" fill="#DC9ECC"/>
<path d="M1143.12 42.7455L1142.98 45.4337L1152.16 45.8941L1152.29 43.2058L1143.12 42.7455Z" fill="#FF7E9C"/>
<path d="M1128.88 37.3774L1126.26 37.9868L1128.34 46.9367L1130.96 46.3273L1128.88 37.3774Z" fill="#FFE27A"/>
<path d="M1132.33 32.4746L1131.07 34.853L1139.19 39.1561L1140.45 36.7777L1132.33 32.4746Z" fill="#FFCEE3"/>
<path d="M1118.42 45.6985L1114.79 54.1403L1117.26 55.2035L1120.89 46.7617L1118.42 45.6985Z" fill="#DC9ECC"/>
<path d="M1155.38 35.8669L1154.46 38.3982L1163.1 41.5233L1164.02 38.992L1155.38 35.8669Z" fill="#ADD5EA"/>
<path d="M1086.39 35.8647L1085.48 38.396L1094.12 41.5211L1095.03 38.9898L1086.39 35.8647Z" fill="#ADD5EA"/>
<path d="M1146.98 26.9989L1144.39 27.7275L1146.88 36.5736L1149.47 35.8449L1146.98 26.9989Z" fill="#91D6D0"/>
<path d="M1063.34 32.4802L1062.08 34.8586L1070.2 39.1618L1071.46 36.7833L1063.34 32.4802Z" fill="#FFCEE3"/>
<path d="M1093.3 14.8892L1092.54 17.4706L1101.35 20.0747L1102.11 17.4933L1093.3 14.8892Z" fill="#FFA878"/>
<path d="M1078 27.001L1075.41 27.7296L1077.9 36.5757L1080.49 35.847L1078 27.001Z" fill="#91D6D0"/>
<path d="M1057.28 7.97128L1054.75 8.89966L1057.92 17.5243L1060.45 16.5959L1057.28 7.97128Z" fill="#ADD5EA"/>
<path d="M1033.72 26.5974L1024.88 29.0848L1025.61 31.6762L1034.45 29.1888L1033.72 26.5974Z" fill="#FFE27A"/>
<path d="M1061.97 -2.62169L1060.62 -0.290649L1068.58 4.30375L1069.93 1.97271L1061.97 -2.62169Z" fill="#B4B6DB"/>
<path d="M1042.44 3.14221L1040.54 5.04553L1047.04 11.5429L1048.94 9.6396L1042.44 3.14221Z" fill="#91D6D0"/>
<path d="M1040.44 13.8805L1037.31 22.5216L1039.85 23.4371L1042.97 14.7959L1040.44 13.8805Z" fill="#FFCEE3"/>
<path d="M1083.79 1.89504L1082.73 4.36902L1091.18 7.99032L1092.24 5.51635L1083.79 1.89504Z" fill="#FFCEE3"/>
<path d="M1031.07 0.166958L1028.45 0.776367L1030.53 9.72626L1033.15 9.11685L1031.07 0.166958Z" fill="#FF7E9C"/>
<path d="M1048.7 20.5666L1044.74 28.8567L1047.17 30.0174L1051.13 21.7272L1048.7 20.5666Z" fill="#FFAFAF"/>
<path d="M1061.22 23.3084L1052.86 27.1227L1053.98 29.5716L1062.34 25.7574L1061.22 23.3084Z" fill="#DC9ECC"/>
<path d="M1024.32 14.8849L1023.55 17.4663L1032.36 20.0704L1033.13 17.489L1024.32 14.8849Z" fill="#FFA878"/>
<path d="M1077.93 19.7636L1068.98 21.8448L1069.59 24.4666L1078.54 22.3853L1077.93 19.7636Z" fill="#FFE27A"/>
<path d="M1074.41 4.94247L1068.94 12.3293L1071.1 13.9304L1076.57 6.54351L1074.41 4.94247Z" fill="#FFAFAF"/>
<path d="M1084.53 14.7254L1082.31 16.2535L1087.53 23.8178L1089.75 22.2897L1084.53 14.7254Z" fill="#FF7E9C"/>
<path d="M1042.11 34.6961L1040.36 36.7494L1047.37 42.6909L1049.11 40.6376L1042.11 34.6961Z" fill="#91D6D0"/>
<path d="M1032.34 34.4115L1030.81 43.4717L1033.46 43.9201L1034.99 34.86L1032.34 34.4115Z" fill="#DC9ECC"/>
<path d="M1074.13 42.7461L1074 45.4343L1083.17 45.8947L1083.31 43.2064L1074.13 42.7461Z" fill="#FF7E9C"/>
<path d="M1059.9 37.3735L1057.28 37.9829L1059.36 46.9328L1061.98 46.3234L1059.9 37.3735Z" fill="#FFE27A"/>
<path d="M1063.34 32.4802L1062.08 34.8586L1070.2 39.1618L1071.46 36.7833L1063.34 32.4802Z" fill="#FFCEE3"/>
<path d="M1049.44 45.6969L1045.81 54.1387L1048.28 55.2019L1051.91 46.7602L1049.44 45.6969Z" fill="#DC9ECC"/>
<path d="M1086.39 35.8648L1085.48 38.3961L1094.12 41.5212L1095.03 38.9899L1086.39 35.8648Z" fill="#ADD5EA"/>
<path d="M1017.41 35.8686L1016.49 38.3999L1025.13 41.525L1026.05 38.9937L1017.41 35.8686Z" fill="#ADD5EA"/>
<path d="M1078 27.0011L1075.41 27.7297L1077.9 36.5758L1080.49 35.8471L1078 27.0011Z" fill="#91D6D0"/>
</g>
<defs>
<clipPath id="clip0_1282_21510">
<rect width="361.561" height="150.129" fill="white" transform="translate(-18.1304 -41.9822)"/>
</clipPath>
<clipPath id="clip1_1282_21510">
<rect width="361.561" height="150.129" fill="white" transform="translate(326.876 -41.9819)"/>
</clipPath>
</defs>
</svg>
