<svg width="1366" height="83" viewBox="0 0 1366 83" fill="none" xmlns="http://www.w3.org/2000/svg">
<path d="M577.784 96.7622C579.597 93.9032 580.286 90.823 579.851 87.5135C579.556 85.2771 578.711 83.0898 577.333 80.9599L542.957 27.6055C539.553 22.2807 534.796 20.028 528.702 20.8308C522.69 21.6254 518.761 24.9513 516.923 30.8004L497.861 90.7903C497.033 93.4281 496.779 95.9676 497.098 98.417C497.492 101.358 498.649 103.897 500.584 106.044C503.849 109.656 507.95 111.139 512.888 110.484C516.907 109.951 520.13 107.969 522.542 104.528C523.748 102.808 524.806 100.285 525.716 96.967L551.717 93.5182C554.014 97.1309 556.163 99.654 558.164 101.071C560.863 102.988 564.021 103.709 567.63 103.226C572.026 102.644 575.405 100.49 577.784 96.7622ZM528.726 76.61L534.386 59.9393L543.663 74.5783L528.726 76.61Z" fill="#71AADD"/>
<path d="M733.761 83.4792L723.008 55.2168C720.859 49.5644 720.162 45.3455 720.916 42.552C722.114 38.0874 724.968 34.999 729.471 33.2951C734.122 31.5338 738.395 32.0663 742.283 34.9007C743.956 36.1213 745.293 37.686 746.278 39.5947C746.499 40.0699 747.27 42.0441 748.591 45.5093L758.761 72.248C760.853 77.753 762.116 81.7589 762.559 84.2656C764.027 92.6788 762.313 100.486 757.416 107.695C753.578 113.38 748.451 117.443 742.037 119.876C733.097 123.268 724.377 122.842 715.896 118.598C708.383 114.854 702.888 108.399 699.402 99.2405C697.089 93.1703 696.629 88.2141 698.007 84.3721C699.287 80.825 701.764 78.351 705.455 76.9502C709.523 75.4101 713.198 75.5084 716.495 77.2533C719.792 79.0064 722.22 81.9309 723.779 86.0351C724.123 86.9362 724.591 88.165 725.173 89.7051C725.231 89.8525 725.329 90.1229 725.477 90.4997C726.879 94.1943 729.176 95.4313 732.367 94.2271C734.54 93.3997 735.606 91.794 735.549 89.3938C735.549 88.5828 734.95 86.6085 733.761 83.4792Z" fill="#9977B4"/>
<path d="M823.034 42.0279L821.041 26.799C820.426 22.1214 820.779 18.4596 822.108 15.8054C824.207 11.5865 827.685 9.16169 832.533 8.5309C836.708 7.98204 840.349 9.15349 843.458 12.0371C845.919 14.3144 847.453 17.7551 848.051 22.3508L854.629 72.543C855.359 78.1382 854.917 82.3243 853.284 85.1014C851.086 88.8451 847.805 90.9996 843.45 91.573C839.086 92.1465 835.248 90.7948 831.926 87.5262L806.769 62.8847L809.025 80.0961C809.648 84.8556 809.14 88.5829 807.499 91.2781C805.285 94.9072 802.037 96.9961 797.755 97.5532C793.195 98.1512 789.364 96.865 786.255 93.6865C784 91.3846 782.532 87.6654 781.867 82.5536L775.084 30.8049C774.51 26.4468 775.322 22.7768 777.512 19.7867C779.702 16.7966 782.974 15.019 787.33 14.4455C791.087 13.954 794.663 15.2975 798.042 18.4678L823.034 42.0279Z" fill="#E9555E"/>
<path d="M675.193 56.1861C683.01 82.4742 665.678 105.928 641.679 110.892C617.679 115.857 592.35 99.6364 589.627 76.0189C586.896 52.3277 599.314 28.6447 623.306 23.6885C647.297 18.7324 668.418 33.396 675.193 56.1861Z" fill="black"/>
<path d="M633.255 108.197C655.846 108.197 674.16 89.9064 674.16 67.3436C674.16 44.7809 655.846 26.4902 633.255 26.4902C610.664 26.4902 592.35 44.7809 592.35 67.3436C592.35 89.9064 610.664 108.197 633.255 108.197Z" fill="#FFBC00"/>
<path d="M624.995 66.3441C625.11 66.3441 625.225 66.3359 625.34 66.3113C626.111 66.1475 626.685 65.4757 626.947 64.419C627.161 63.5588 627.152 62.4857 626.923 61.4125C626.693 60.3394 626.267 59.3564 625.717 58.6518C625.044 57.7917 624.249 57.4149 623.478 57.5787C622.699 57.7425 622.133 58.4143 621.87 59.471C621.657 60.3312 621.665 61.4043 621.895 62.4775C622.379 64.7712 623.675 66.3441 624.995 66.3441Z" fill="#050505"/>
<path d="M639.259 63.2968C639.374 63.2968 639.489 63.2886 639.603 63.264C641.039 62.9609 641.711 60.8474 641.178 58.357C640.645 55.8667 639.169 54.2201 637.733 54.5232C636.954 54.687 636.388 55.3588 636.126 56.4155C635.912 57.2757 635.921 58.3488 636.15 59.422C636.651 61.7239 637.947 63.2968 639.259 63.2968Z" fill="#050505"/>
<path d="M662.906 59.5202C662.767 57.9392 661.881 57.6524 661.512 57.6033C661.11 57.546 660.724 57.6688 660.421 57.9392C659.756 58.529 659.732 59.6185 659.732 59.938C659.921 68.8837 655.311 78.1242 647.707 84.0634C640.858 89.4046 632.541 91.2805 624.88 89.1998C616.67 86.9715 609.632 80.0411 606.064 70.6695C605.728 69.793 604.744 69.3506 603.866 69.6864C603.44 69.8503 603.103 70.1616 602.915 70.5794C602.726 70.989 602.718 71.456 602.874 71.8819C605.745 79.4349 610.723 85.6608 616.883 89.421C621.239 92.0752 625.881 93.2302 630.466 93.2302C639.899 93.2302 649.085 88.3478 655.073 81.5894C660.806 75.1259 663.579 67.2862 662.906 59.5202Z" fill="#050505"/>
<path d="M1336.96 10.3723C1333.63 11.5683 1328.97 14.4027 1322.99 18.8673L1313.56 25.896C1309.72 28.7632 1307.53 32.1383 1307 36.0377C1306.51 39.6504 1307.85 43.5825 1311.04 47.8506L1340.58 87.3523C1342.78 90.2932 1344.21 92.1036 1344.88 92.7918C1346.46 94.4957 1348.33 95.7491 1350.48 96.5683C1355.17 98.3705 1359.56 97.7479 1363.63 94.7169C1367.2 92.0545 1369.02 88.6876 1369.07 84.6326C1369.14 80.9298 1367.8 77.2434 1365.05 73.5734L1360.13 66.9788L1364 64.0953C1373.33 57.1403 1377.8 48.3421 1377.43 37.7089C1377.2 31.4011 1375.2 25.7322 1371.44 20.7105C1367.44 15.3612 1362.27 11.7321 1355.92 9.82338C1349.57 7.92284 1343.25 8.10307 1336.96 10.3723ZM1351.69 46.9249L1346.52 50.8079L1335.59 36.2999L1340.77 32.4169C1345.36 28.9681 1350.11 30.9996 1352.78 34.5468C1355.55 38.2168 1356.07 43.6481 1351.69 46.9249Z" fill="#A4CD66"/>
<path d="M942.725 103.389C944.829 100.738 945.84 97.7473 945.757 94.4104C945.699 92.1553 945.09 89.8911 943.944 87.6276L915.393 30.9427C912.57 25.2884 908.077 22.546 901.932 22.701C895.869 22.8566 891.611 25.7492 889.167 31.3717L863.886 89.0233C862.784 91.559 862.263 94.0574 862.323 96.5269C862.404 99.493 863.286 102.14 864.984 104.479C867.849 108.416 871.771 110.323 876.75 110.193C880.803 110.088 884.218 108.457 886.979 105.29C888.36 103.706 889.678 101.309 890.934 98.1058L917.154 97.4209C919.056 101.256 920.927 103.992 922.767 105.612C925.248 107.803 928.313 108.853 931.952 108.754C936.378 108.63 939.974 106.846 942.725 103.389ZM896.077 78.1721L903.464 62.1919L911.144 77.7284L896.077 78.1721Z" fill="#82CCB5"/>
<path d="M74.4175 47.9638C82.2342 74.2519 64.9028 97.7055 40.903 102.67C16.9032 107.634 -8.42542 91.414 -11.1486 67.7966C-13.8799 44.1054 -1.4617 20.4224 22.5299 15.4662C46.538 10.5019 67.6342 25.1737 74.4175 47.9638Z" fill="black"/>
<path d="M32.4711 99.9747C55.0621 99.9747 73.3758 81.684 73.3758 59.1212C73.3758 36.5585 55.0621 18.2678 32.4711 18.2678C9.88004 18.2678 -8.43362 36.5585 -8.43362 59.1212C-8.43362 81.684 9.88004 99.9747 32.4711 99.9747Z" fill="#FFBC00"/>
<path d="M24.2114 58.1218C24.3262 58.1218 24.4411 58.1136 24.5559 58.0891C25.3269 57.9252 25.9011 57.2535 26.1635 56.1967C26.3768 55.3366 26.3686 54.2634 26.1389 53.1902C25.9093 52.1171 25.4827 51.1341 24.9332 50.4296C24.2606 49.5694 23.465 49.1926 22.694 49.3564C21.9147 49.5202 21.3488 50.192 21.0863 51.2488C20.8731 52.1089 20.8813 53.182 21.1109 54.2552C21.6031 56.549 22.8908 58.1218 24.2114 58.1218Z" fill="#050505"/>
<path d="M38.4833 55.0744C38.5982 55.0744 38.713 55.0662 38.8278 55.0416C40.2632 54.7385 40.9358 52.625 40.4027 50.1346C39.8695 47.6443 38.3931 45.9977 36.9577 46.3008C36.1785 46.4646 35.6126 47.1364 35.3501 48.1931C35.1368 49.0533 35.145 50.1264 35.3747 51.1996C35.8668 53.5015 37.1628 55.0744 38.4833 55.0744Z" fill="#050505"/>
<path d="M62.1305 51.2979C61.991 49.7169 61.1052 49.4302 60.7361 49.381C60.3342 49.3237 59.9487 49.4465 59.6452 49.7169C58.9808 50.3067 58.9562 51.3962 58.9562 51.7157C59.1449 60.6614 54.5352 69.9019 46.9317 75.8411C40.0828 81.1823 31.7657 83.0583 24.1048 80.9775C15.8943 78.7493 8.85677 71.8188 5.28878 62.4472C4.96069 61.5707 3.9682 61.1283 3.09056 61.4642C2.66404 61.628 2.32774 61.9393 2.13909 62.3571C1.95044 62.7667 1.94225 63.2336 2.09809 63.6596C4.96888 71.2126 9.94765 77.4385 16.1076 81.1986C20.463 83.8528 25.1055 85.0079 29.6905 85.0079C39.1231 85.0079 48.3097 80.1255 54.2973 73.3671C60.0225 66.9036 62.8031 59.0639 62.1305 51.2979Z" fill="#050505"/>
<path d="M81.5073 95.1165C83.0575 97.0416 86.3139 98.7947 91.2926 100.368L101.701 103.661C109.699 106.192 116.383 107.224 121.764 106.766C131.705 105.922 140.129 101.793 147.035 94.3956C151.03 90.1112 153.901 85.2288 155.639 79.7484C159.183 68.5663 157.985 58.0314 152.047 48.1273C146.978 39.6568 138.972 33.693 128.039 30.236L113.053 25.4929C107.894 23.8627 103.596 24.1166 100.151 26.2629C98.2645 27.4262 96.8127 29.0973 95.7957 31.2928C95.4348 32.0628 94.6966 34.2009 93.581 37.7235L80.6379 78.5523C79.3583 82.5828 78.6939 85.4418 78.6365 87.1457C78.5463 89.9474 79.4978 92.6098 81.5073 95.1165ZM115.383 55.9179L122.896 58.269C129.573 60.3579 130.926 66.4855 129.318 71.6301C127.645 76.9631 122.642 81.3212 116.301 79.3388L108.788 76.9877L115.383 55.9179Z" fill="#A4CD66"/>
<path d="M448.096 33.7478L452.32 65.9505C453.14 72.1927 456.044 74.978 461.056 74.3227C466.059 73.6673 468.167 70.3414 467.38 64.3448L463.106 31.7244C462.712 28.7261 462.54 26.7764 462.581 25.8753C462.68 24.155 463.319 22.3609 464.501 20.5013C466.781 16.7904 470.045 14.6523 474.286 14.1034C478.567 13.5463 482.308 14.726 485.498 17.6341C487.951 19.8787 489.583 24.073 490.387 30.2334L494.176 59.1347C495.579 69.8498 493.865 78.8119 489.034 86.0372C483.005 94.9992 474.86 100.152 464.615 101.487C458.332 102.306 452.189 101.405 446.185 98.7757C438.54 95.4252 432.791 89.953 428.952 82.3672C427.197 78.902 425.925 74.167 425.138 68.1705L421.348 39.2692C420.914 35.9105 420.7 33.6822 420.717 32.5845C420.783 30.2989 421.398 28.1854 422.571 26.2439C424.875 22.3609 428.206 20.1409 432.569 19.5675C436.449 19.0595 439.935 20.0508 443.035 22.533C445.701 24.6465 447.399 28.3902 448.096 33.7478Z" fill="#E9555E"/>
<path d="M395.023 55.955L391.118 56.4629C386.115 57.1183 382.506 55.9632 380.283 52.9977C379.209 51.5969 378.544 49.9748 378.306 48.1317C377.88 44.8549 378.823 42.1269 381.144 39.9561C382.883 38.3095 385.869 37.2036 390.118 36.6465C396.885 35.7618 400.805 35.2866 401.896 35.2293C407.146 34.9098 410.886 35.4587 413.109 36.8759C416.488 39.0386 418.571 43.1755 419.375 49.2867C419.99 53.9643 420.425 58.0521 420.679 61.5583C421.057 66.6373 418.522 71.6263 413.051 76.5251C406.276 82.6199 398.525 86.2326 389.806 87.3712C379.323 88.7393 369.637 86.634 360.762 81.047C355.34 77.6064 350.87 73.1418 347.343 67.645C343.816 62.1481 341.634 56.2253 340.797 49.8684C339.715 41.6354 340.879 33.7465 344.292 26.2017C347.696 18.6569 352.855 12.6276 359.753 8.10563C365.56 4.29636 371.769 1.96164 378.38 1.10149C386.706 0.0119528 394.678 1.22437 402.306 4.73873C408.417 7.55677 411.796 11.448 412.444 16.4041C412.936 20.1642 412.018 23.5475 409.68 26.554C407.342 29.5604 404.299 31.3135 400.535 31.805C398.976 32.0098 395.572 31.2152 390.331 29.4212C387.173 28.3316 384.237 27.963 381.514 28.3153C377.273 28.8723 373.853 30.9285 371.269 34.5002C368.685 38.0719 367.668 41.9959 368.234 46.2721C368.816 50.7121 370.842 54.2756 374.304 56.979C377.773 59.6742 381.727 60.7309 386.172 60.1575C389.019 59.797 391.963 58.3962 395.023 55.955Z" fill="#9977B4"/>
<path d="M217.569 43.0749L212.533 29.042C210.983 24.733 210.564 21.1859 211.278 18.3924C212.402 13.9606 215.191 10.9459 219.661 9.3403C223.508 7.96405 227.199 8.32449 230.75 10.4216C233.555 12.0764 235.713 15.0255 237.238 19.2608L253.831 65.4963C255.685 70.6491 256.12 74.7123 255.144 77.686C253.831 81.6919 251.166 84.4034 247.147 85.8452C243.127 87.287 239.207 86.7955 235.384 84.3789L206.447 66.1845L212.139 82.0359C213.714 86.4187 214.001 90.0559 213.001 92.9477C211.655 96.8389 209.006 99.4931 205.061 100.902C200.853 102.409 196.957 101.975 193.356 99.5996C190.74 97.8792 188.591 94.6598 186.893 89.9412L169.783 42.2639C168.339 38.2498 168.347 34.5962 169.807 31.3112C171.267 28.0262 174.007 25.6669 178.018 24.2251C181.479 22.9881 185.146 23.5288 189.009 25.839L217.569 43.0749Z" fill="#F08D8F"/>
<path d="M324.172 76.9925C331.414 71.7742 335.835 65.4991 337.435 58.1837C338.288 54.2679 338.312 50.1883 337.492 45.9449C336.393 40.317 333.801 35.369 329.716 31.101C325.623 26.8248 320.784 24.0886 315.198 22.868L298.203 19.1653C287.147 16.7568 280.503 20.6726 278.264 30.9208L267.355 80.8427C266.329 85.5531 266.567 89.5835 268.076 92.9423C269.741 96.7433 272.866 99.1436 277.46 100.151C281.225 100.97 284.628 100.348 287.68 98.2752C290.723 96.2027 292.659 93.2863 293.479 89.5262L295.874 78.5407L303.051 99.2583C304.65 103.92 307.866 106.779 312.697 107.827C316.461 108.646 319.915 108.106 323.048 106.197C326.181 104.288 328.166 101.454 328.986 97.6936C329.634 94.7281 329.396 91.6479 328.265 88.4612L324.172 76.9925ZM305.093 60.2644L298.876 58.9291L302.624 41.4966L308.842 42.8319C314.362 44.0197 315.912 48.8448 314.993 53.1046C314.042 57.5119 310.343 61.3867 305.093 60.2644Z" fill="#82CCB5"/>
<path d="M1272.18 17.3841C1264.11 13.6485 1255.64 12.4198 1246.76 13.6813C1237.62 14.9838 1229.67 18.4654 1222.89 24.1425C1215.96 29.9342 1211.14 37.2005 1208.43 45.9413C1206.45 52.2901 1205.88 58.6635 1206.73 65.0696C1207.77 72.8438 1210.32 79.7578 1214.39 85.8281C1219.22 93.0534 1225.67 98.4929 1233.75 102.13C1241.83 105.776 1250.17 107.029 1258.76 105.89C1267.61 104.719 1275.4 101.426 1282.12 96.0107C1288.45 90.9153 1293.14 84.5747 1296.17 77.0053C1299.22 69.4277 1300.2 61.6126 1299.13 53.5353C1298.17 46.3591 1295.66 39.781 1291.61 33.809C1286.72 26.5919 1280.25 21.1114 1272.18 17.3841ZM1255.5 76.7596C1246.81 77.9392 1238.81 71.8608 1237.62 63.1855C1236.44 54.502 1242.52 46.5148 1251.21 45.3269C1259.9 44.1473 1267.9 50.2257 1269.09 58.9011C1270.28 67.5846 1264.19 75.5799 1255.5 76.7596Z" fill="#9977B4"/>
<path d="M1124.81 98.3834C1126.36 100.308 1129.62 102.062 1134.6 103.634L1145.01 106.928C1153 109.459 1159.69 110.491 1165.07 110.032C1175.01 109.189 1183.43 105.06 1190.34 97.6625C1194.33 93.3781 1197.2 88.4956 1198.94 83.0152C1202.49 71.8332 1201.29 61.2983 1195.35 51.3942C1190.28 42.9236 1182.28 36.9599 1171.34 33.5029L1156.36 28.7597C1151.2 27.1295 1146.9 27.3835 1143.46 29.5298C1141.57 30.693 1140.12 32.3642 1139.1 34.5596C1138.74 35.3297 1138 37.4678 1136.89 40.9903L1123.94 81.811C1122.66 85.8414 1122 88.7004 1121.94 90.4044C1121.85 93.2142 1122.81 95.8684 1124.81 98.3834ZM1158.69 59.1765L1166.21 61.5276C1172.88 63.6166 1174.24 69.7442 1172.63 74.8888C1170.96 80.2217 1165.95 84.5799 1159.61 82.5974L1152.1 80.2463L1158.69 59.1765Z" fill="#71AADD"/>
<path d="M1075.78 82.3814L1087.04 86.5757C1091.7 88.3042 1094.8 90.5488 1096.36 93.3013C1098.19 96.5699 1098.43 100.002 1097.09 103.59C1095.72 107.26 1093.28 109.726 1089.75 111.004C1087 111.987 1083.25 111.586 1078.47 109.816L1059.15 102.624C1054.6 100.928 1051.6 99.4207 1050.18 98.0936C1047.38 95.505 1046.03 92.4821 1046.11 89.0005C1046.19 86.7723 1047.07 83.4054 1048.75 78.8998L1063.97 38.0956C1065.24 34.6877 1066.21 32.4349 1066.87 31.3454C1068.16 29.1172 1069.89 27.4624 1072.04 26.381C1074.5 25.1686 1077.19 24.8082 1080.1 25.3079C1081.47 25.57 1084.11 26.4302 1088.04 27.8884L1102.85 33.4016C1106.89 34.9007 1109.22 35.81 1109.86 36.1377C1112.41 37.3747 1114.28 38.9557 1115.49 40.8645C1117.66 44.256 1118.05 47.7867 1116.68 51.4567C1115.2 55.4134 1112.75 57.9529 1109.34 59.0589C1106.3 60.0583 1102.74 59.7961 1098.68 58.2888L1086.48 53.7504L1084.57 58.8704L1094.29 62.4831C1097.14 63.5481 1099.22 65.1783 1100.53 67.3737C1101.9 69.7248 1102.06 72.3053 1101.01 75.1315C1098.78 81.1117 1094.02 82.7419 1086.74 80.0303L1077.9 76.7371L1075.78 82.3814Z" fill="#F08D8F"/>
<path d="M1041.89 42.8899C1049.71 69.178 1032.38 92.6317 1008.38 97.596C984.376 102.56 959.048 86.3402 956.325 62.7227C953.593 39.0315 966.012 15.3485 990.003 10.3924C1014.01 5.42801 1035.11 20.0999 1041.89 42.8899Z" fill="black"/>
<path d="M999.944 94.909C1022.54 94.909 1040.85 76.6183 1040.85 54.0556C1040.85 31.4929 1022.54 13.2021 999.944 13.2021C977.353 13.2021 959.04 31.4929 959.04 54.0556C959.04 76.6183 977.353 94.909 999.944 94.909Z" fill="#FFBC00"/>
<path d="M991.685 53.048C991.8 53.048 991.914 53.0398 992.029 53.0152C992.8 52.8514 993.374 52.1796 993.637 51.1229C993.85 50.2627 993.842 49.1896 993.612 48.1164C993.383 47.0433 992.956 46.0602 992.407 45.3557C991.734 44.4955 990.938 44.1187 990.167 44.2826C989.388 44.4464 988.822 45.1181 988.56 46.1749C988.346 47.0351 988.355 48.1082 988.584 49.1814C989.076 51.4751 990.364 53.048 991.685 53.048Z" fill="#050505"/>
<path d="M1005.96 50.0088C1006.07 50.0088 1006.19 50.0006 1006.3 49.9761C1007.74 49.673 1008.41 47.5594 1007.88 45.0691C1007.34 42.5787 1005.87 40.9321 1004.43 41.2352C1003.65 41.3991 1003.09 42.0708 1002.82 43.1276C1002.61 43.9877 1002.62 45.0609 1002.85 46.134C1003.34 48.4278 1004.64 50.0088 1005.96 50.0088Z" fill="#050505"/>
<path d="M1029.6 46.2241C1029.46 44.643 1028.58 44.3563 1028.21 44.3072C1027.81 44.2498 1027.42 44.3727 1027.12 44.643C1026.45 45.2329 1026.43 46.3224 1026.43 46.6419C1026.62 55.5875 1022.01 64.8281 1014.41 70.7673C1007.56 76.1084 999.239 77.9844 991.578 75.9036C983.368 73.6754 976.33 66.745 972.762 57.3734C972.426 56.4968 971.442 56.0545 970.564 56.3903C970.137 56.5542 969.801 56.8655 969.613 57.2832C969.424 57.6928 969.416 58.1598 969.571 58.5858C972.442 66.1388 977.421 72.3647 983.581 76.1248C987.936 78.779 992.579 79.9341 997.164 79.9341C1006.6 79.9341 1015.78 75.0517 1021.77 68.2933C1027.5 61.8298 1030.28 53.9901 1029.6 46.2241Z" fill="#050505"/>
</svg>
