<svg width="17" height="16" viewBox="0 0 17 16" fill="none" xmlns="http://www.w3.org/2000/svg">
<path d="M8.05387 10.6666C9.52661 10.6666 10.7205 9.47271 10.7205 7.99998C10.7205 6.52722 9.52661 5.33331 8.05387 5.33331C6.58111 5.33331 5.38721 6.52722 5.38721 7.99998C5.38721 9.47271 6.58111 10.6666 8.05387 10.6666Z" stroke="#E9555E" stroke-linecap="round" stroke-linejoin="round"/>
<path d="M2.05383 10.6667V5.33333C2.05383 3.49239 3.54622 2 5.38717 2H10.7205C12.5614 2 14.0538 3.49239 14.0538 5.33333V10.6667C14.0538 12.5076 12.5614 14 10.7205 14H5.38717C3.54622 14 2.05383 12.5076 2.05383 10.6667Z" stroke="#E9555E"/>
<path d="M11.7205 4.33999L11.7285 4.33258" stroke="#E9555E" stroke-linecap="round" stroke-linejoin="round"/>
</svg>
