<svg width="126" height="54" viewBox="0 0 126 54" fill="none" xmlns="http://www.w3.org/2000/svg">
<path d="M12.2318 32.0841C13.6621 30.7706 14.4332 29.1603 14.5451 27.258C14.5792 26.6913 14.5086 25.7572 14.3359 24.4534L13.4967 18.1289C13.3872 17.3091 13.3216 16.8421 13.2972 16.7253C13.1805 16.2607 12.9713 15.852 12.6697 15.5018C11.9715 14.6869 11.0715 14.3536 9.972 14.4996C8.909 14.6407 8.13304 15.1661 7.6441 16.0734C7.33761 16.6402 7.27193 17.5937 7.4495 18.9316L8.33737 25.6185C8.4371 26.358 8.46629 26.8178 8.42494 26.9953C8.31304 27.5183 8.00168 27.8127 7.48599 27.8808C6.73191 27.9805 6.29893 27.5937 6.18217 26.7205C6.17001 26.6305 6.16271 26.5696 6.15784 26.5332C6.10919 26.1683 6.07027 25.8788 6.04352 25.6648C5.91459 24.6918 5.53756 23.9328 4.9124 23.3855C4.28725 22.8382 3.49426 22.629 2.53342 22.7555C1.66015 22.8722 0.996077 23.2809 0.538767 23.9863C0.0425367 24.7501 -0.110712 25.8496 0.0814555 27.2872C0.368491 29.4546 1.23203 31.1355 2.66964 32.3322C4.29211 33.6871 6.16028 34.2247 8.27412 33.9426C9.78957 33.7431 11.108 33.1228 12.2318 32.0841Z" fill="#F08D8F"/>
<path d="M21.2175 31.0818C22.5554 31.6656 23.9249 31.8651 25.326 31.6802C27.6077 31.3762 29.4199 30.2256 30.7602 28.2236C31.8354 26.6109 32.2124 24.6089 31.8962 22.2202L31.0399 15.7741C30.8575 14.4022 30.4926 13.4657 29.9453 12.967C29.2326 12.3175 28.4007 12.0572 27.4447 12.1837C26.4984 12.3102 25.7736 12.787 25.2676 13.6165C25.0049 14.0324 24.8638 14.4314 24.8419 14.8157C24.8322 15.0176 24.8711 15.4506 24.9611 16.1195L25.9268 23.3951C26.1044 24.733 25.6349 25.4749 24.5208 25.6233C23.4067 25.7717 22.7573 25.149 22.5724 23.7576L21.6188 16.5744C21.4607 15.38 21.0813 14.5457 20.4829 14.0713C19.792 13.5192 19.0136 13.3002 18.1501 13.4146C17.1771 13.5435 16.4376 14.0422 15.9244 14.9081C15.6641 15.3411 15.5279 15.813 15.5133 16.3238C15.5084 16.5695 15.5571 17.0658 15.6568 17.815L16.513 24.2611C16.6906 25.599 16.9752 26.6547 17.3693 27.4282C18.2304 29.1188 19.5147 30.3375 21.2175 31.0818Z" fill="#F8BA5C"/>
<path d="M49.4953 26.73C50.7116 25.6354 51.2759 24.5213 51.1883 23.3877C51.13 22.6069 51.0326 21.6947 50.894 20.6512C50.714 19.2865 50.2445 18.3646 49.4929 17.883C48.9967 17.5667 48.1647 17.4476 46.9947 17.5205C46.7514 17.5351 45.8758 17.6422 44.37 17.8416C43.4238 17.9681 42.7597 18.2138 42.3729 18.5835C41.8573 19.07 41.6481 19.6782 41.7454 20.4103C41.7989 20.819 41.9473 21.1814 42.1881 21.4952C42.6843 22.1569 43.4895 22.4123 44.6036 22.2639L45.472 22.1496C44.7909 22.6945 44.1341 23.0082 43.5016 23.091C42.5116 23.2223 41.631 22.9888 40.8551 22.388C40.0815 21.7871 39.6291 20.9917 39.4977 20.0017C39.3712 19.0481 39.595 18.1724 40.1691 17.3746C40.7432 16.5767 41.5045 16.1145 42.4484 15.9905C43.054 15.9102 43.7084 15.9905 44.4138 16.2337C45.5839 16.6327 46.3404 16.8078 46.6882 16.7616C47.5274 16.6497 48.2037 16.2581 48.7242 15.5867C49.2423 14.9153 49.4467 14.1588 49.3348 13.322C49.1888 12.2152 48.4323 11.3493 47.0701 10.7241C45.3698 9.94328 43.5916 9.67571 41.7381 9.92139C40.2664 10.116 38.8847 10.639 37.5907 11.4928C36.0557 12.5047 34.91 13.8523 34.1535 15.5356C33.397 17.2189 33.1416 18.98 33.3849 20.8166C33.5722 22.2347 34.0611 23.5556 34.8492 24.7815C35.6374 26.0051 36.6371 27 37.8436 27.7662C39.8237 29.0092 41.9813 29.4763 44.3189 29.1673C46.2625 28.9022 47.9872 28.0922 49.4953 26.73Z" fill="#71AADD"/>
<path d="M69.3396 24.3681C69.7288 23.7526 69.8772 23.091 69.7824 22.3758C69.7191 21.8942 69.5367 21.4247 69.2423 20.965L61.85 9.47872C61.1178 8.33301 60.0961 7.84651 58.785 8.02165C57.4909 8.19436 56.6469 8.90952 56.2528 10.1671L52.1565 23.0837C51.9789 23.6529 51.9229 24.2002 51.9935 24.7256C52.0786 25.3581 52.3267 25.9054 52.7427 26.3676C53.4457 27.146 54.3262 27.4646 55.3868 27.3236C56.2504 27.2092 56.9436 26.7811 57.4617 26.0416C57.722 25.6719 57.9482 25.1294 58.1428 24.4143L63.7327 23.6724C64.2265 24.4508 64.6887 24.9932 65.1193 25.2997C65.7006 25.7132 66.3793 25.8665 67.1528 25.7643C68.1015 25.6354 68.8288 25.1708 69.3396 24.3681ZM58.7923 20.0309L60.0086 16.4405L62.0032 19.5931L58.7923 20.0309Z" fill="#82CCB5"/>
<path d="M85.4064 8.02652C85.2702 7.00001 84.9272 6.23377 84.3775 5.72537C83.6818 5.08319 82.8717 4.82292 81.9401 4.94697C80.8576 5.09049 80.0841 5.63294 79.6195 6.57432C79.3251 7.16785 79.2473 7.98517 79.386 9.02871L79.836 12.4245L74.2631 7.17758C73.5066 6.46972 72.7112 6.17295 71.8744 6.28242C70.9038 6.41134 70.1765 6.81027 69.6876 7.47678C69.2011 8.14571 69.0211 8.96547 69.15 9.93603L70.6825 21.4783C70.8333 22.6191 71.1617 23.4486 71.6652 23.9618C72.3585 24.6697 73.2123 24.9543 74.2291 24.8205C75.1826 24.694 75.9075 24.227 76.3988 23.417C76.7637 22.8161 76.8756 21.9842 76.7345 20.9236L76.2237 17.0852L81.8379 22.5729C82.5774 23.3002 83.4336 23.5994 84.4066 23.4705C85.3772 23.3415 86.1094 22.8599 86.5959 22.0231C86.9583 21.4028 87.0556 20.4688 86.8902 19.2209L85.4064 8.02652Z" fill="#F08D8F"/>
<path d="M91.2419 21.9379C91.7673 22.1958 92.6382 22.242 93.8593 22.0814L96.4134 21.7433C98.3764 21.483 99.9089 21.033 101.013 20.3981C103.052 19.2208 104.438 17.4937 105.17 15.2194C105.594 13.9009 105.718 12.5704 105.538 11.2228C105.173 8.47646 103.859 6.34073 101.597 4.81798C99.6632 3.51416 97.3548 3.03982 94.6717 3.3974L90.9938 3.88633C89.7265 4.05418 88.8337 4.54068 88.3156 5.3434C88.0286 5.78125 87.8875 6.28478 87.8899 6.85642C87.8899 7.05588 87.9459 7.5886 88.0626 8.45457L89.3932 18.4862C89.5246 19.4762 89.6705 20.1549 89.8262 20.5246C90.0913 21.1279 90.5632 21.6022 91.2419 21.9379ZM94.5477 10.1573L96.3891 9.90677C98.0237 9.68298 98.9286 10.8579 99.1013 12.1228C99.2789 13.4315 98.6464 14.8642 97.0921 15.0758L95.2507 15.3264L94.5477 10.1573Z" fill="#A4CD66"/>
<path d="M124.302 4.4021C123.285 2.89395 121.935 1.75068 120.254 0.972277C118.571 0.193876 116.805 -0.0639689 114.954 0.198741C113.049 0.471181 111.388 1.1985 109.977 2.38313C108.532 3.59208 107.525 5.10753 106.961 6.93434C106.547 8.26005 106.428 9.59063 106.606 10.9285C106.82 12.551 107.352 13.9959 108.201 15.2632C109.208 16.7714 110.556 17.9074 112.239 18.6663C113.923 19.4277 115.662 19.6879 117.455 19.452C119.301 19.2063 120.923 18.5203 122.327 17.3892C123.645 16.3238 124.623 15.0029 125.258 13.4194C125.893 11.8383 126.097 10.2036 125.873 8.52033C125.672 7.02434 125.149 5.64998 124.302 4.4021ZM116.752 13.0788C114.993 13.3172 113.373 12.0864 113.134 10.3277C112.896 8.56898 114.127 6.94893 115.886 6.71055C117.644 6.47216 119.264 7.70301 119.503 9.46171C119.741 11.2204 118.51 12.8405 116.752 13.0788Z" fill="#71AADD"/>
<path d="M17.7512 35.8058C17.0409 34.6941 16.0485 34.2222 14.7763 34.3901C13.5211 34.5579 12.7013 35.2512 12.3194 36.4723L8.34473 49.007C8.17202 49.5592 8.11851 50.0894 8.18662 50.6003C8.26689 51.2157 8.51014 51.746 8.91394 52.1936C9.59504 52.9476 10.4513 53.259 11.4802 53.1203C12.3194 53.0084 12.9908 52.5949 13.4943 51.8749C13.7449 51.5173 13.9662 50.9895 14.156 50.2938L19.5805 49.5738C20.0597 50.3303 20.5072 50.8557 20.9256 51.1524C21.49 51.5538 22.1467 51.7046 22.9008 51.6025C23.8179 51.4808 24.5233 51.0308 25.0195 50.2524C25.399 49.6565 25.5425 49.0118 25.4501 48.3186C25.3868 47.8515 25.2117 47.3942 24.9247 46.9491L17.7512 35.8058ZM14.6279 45.8277L15.8441 42.2373L17.8388 45.3899L14.6279 45.8277Z" fill="#71AADD"/>
<path d="M33.5383 32.3637C32.8013 32.242 31.6483 32.2834 30.0817 32.4926L27.6152 32.821C26.6105 32.9548 25.8589 33.3537 25.3578 34.0178C24.8932 34.6332 24.7351 35.4992 24.8835 36.6157L26.2554 46.9587C26.3576 47.7298 26.4354 48.2114 26.4865 48.406C26.6032 48.8828 26.8173 49.3085 27.1311 49.6806C27.8122 50.498 28.683 50.8336 29.7485 50.6926C30.6825 50.5685 31.3661 50.1355 31.7942 49.3912C32.1883 48.7125 32.3221 47.8952 32.1956 46.9343L31.9669 45.2073L32.9788 45.0735C35.4186 44.75 37.153 43.5872 38.182 41.5828C38.7901 40.3933 39.0066 39.1406 38.8314 37.8246C38.6441 36.4235 38.0652 35.2194 37.0898 34.2124C36.1192 33.2102 34.9346 32.5923 33.5383 32.3637ZM32.485 40.6366L31.1301 40.8215L30.612 37.0146L31.9669 36.8297C33.171 36.6668 33.8375 37.5303 33.964 38.4619C34.0953 39.4252 33.6283 40.4809 32.485 40.6366Z" fill="#A4CD66"/>
<path d="M52.6966 40.5709C53.7791 38.9824 54.2169 37.3892 54.0029 35.7886C53.8885 34.9323 53.5942 34.1028 53.1174 33.305C52.4826 32.2444 51.5971 31.432 50.4563 30.8652C49.3154 30.2984 48.1357 30.0965 46.9146 30.2595L43.2026 30.7533C40.7895 31.0744 39.7289 32.3539 40.0281 34.5942L41.4779 45.5088C41.6141 46.5378 41.9595 47.3381 42.5093 47.9073C43.1247 48.5568 43.9323 48.8146 44.9369 48.6808C45.7591 48.5714 46.4013 48.1943 46.8683 47.5521C47.3329 46.91 47.5105 46.1778 47.4011 45.3556L47.0824 42.9547L50.0525 46.6278C50.7166 47.4548 51.5777 47.8003 52.6334 47.6592C53.4556 47.5497 54.1148 47.1873 54.6086 46.5718C55.1048 45.9564 55.297 45.2364 55.1875 44.4142C55.1024 43.7647 54.8275 43.159 54.3653 42.5947L52.6966 40.5709ZM47.6102 38.5762L46.2553 38.7611L45.7372 34.9542L47.0921 34.7693C48.2962 34.6064 48.9627 35.4699 49.0892 36.4016C49.2206 37.3648 48.7535 38.4205 47.6102 38.5762Z" fill="#F08D8F"/>
<path d="M64.6523 33.4754C65.6107 33.3489 66.338 33.0278 66.8318 32.5121C67.3888 31.938 67.6053 31.1815 67.4813 30.2474C67.3669 29.3815 66.9194 28.7296 66.1385 28.2868C65.7007 28.0363 65.1655 27.922 64.5355 27.9439C64.3774 27.9463 63.8228 28.012 62.8692 28.1385L59.3786 28.6006C58.4518 28.7247 57.8413 28.8317 57.5469 28.9217C56.9218 29.1285 56.4329 29.4788 56.0753 29.975C55.7639 30.4129 55.5985 30.9188 55.5766 31.4929C55.562 31.7775 55.6082 32.3199 55.7128 33.1251L56.9923 42.7554C57.1334 43.8184 57.3134 44.5749 57.5299 45.0225C57.8778 45.7157 58.4616 46.1706 59.2837 46.3871C59.7046 46.499 60.4489 46.482 61.5241 46.3409L66.0802 45.7352C67.204 45.5868 67.9872 45.2706 68.4251 44.7914C68.9846 44.1711 69.2083 43.4292 69.094 42.5632C68.9821 41.7143 68.5735 41.0648 67.8729 40.6123C67.2769 40.2329 66.4329 40.1161 65.3358 40.262L62.6819 40.6148L62.5044 39.2769L64.589 38.9996C66.3064 38.7709 67.0702 37.9536 66.8829 36.5428C66.7953 35.8762 66.4912 35.3849 65.9755 35.0662C65.489 34.7695 64.9077 34.6673 64.2363 34.7549L61.9449 35.0589L61.7844 33.8524L64.6523 33.4754Z" fill="#A4CD66"/>
<path d="M81.6482 25.5161C80.5998 25.6548 79.8482 26.1826 79.3957 27.0973C79.1087 27.6738 79.0333 28.4668 79.1695 29.4787L79.6073 32.7747L74.195 27.6811C73.4628 26.9951 72.6893 26.7056 71.8769 26.8127C70.9355 26.9367 70.2276 27.3235 69.7557 27.973C69.2838 28.6224 69.1111 29.4179 69.2352 30.3592L70.7214 41.5609C70.8698 42.6677 71.186 43.4704 71.675 43.9691C72.3463 44.6551 73.1758 44.9324 74.1634 44.801C75.0902 44.677 75.7907 44.2245 76.2675 43.4388C76.6227 42.855 76.7297 42.0474 76.5935 41.0185L76.0997 37.2943L81.5485 42.6191C82.2685 43.3245 83.098 43.6164 84.0418 43.4899C84.9856 43.3634 85.6935 42.8964 86.1678 42.0863C86.5205 41.4855 86.6154 40.5782 86.4548 39.3668L85.0124 28.5032C84.881 27.5084 84.5478 26.764 84.015 26.2726C83.3388 25.6475 82.5507 25.3945 81.6482 25.5161Z" fill="#9977B4"/>
<path d="M100.724 25.3875C98.8483 24.1226 96.608 23.6628 94.0028 24.0082L90.4343 24.4826C89.2059 24.6455 88.3399 25.1175 87.8364 25.8983C87.5567 26.324 87.4205 26.8129 87.4229 27.3651C87.4229 27.5597 87.4764 28.0754 87.5883 28.9146L88.8799 38.6495C89.0064 39.6103 89.1475 40.2695 89.3008 40.6271C89.5538 41.2182 90.0135 41.6779 90.6727 42.0039C91.1811 42.252 92.0276 42.2982 93.2147 42.1425L95.6934 41.8141C97.5956 41.5612 99.0843 41.1257 100.157 40.5079C102.137 39.3646 103.48 37.6886 104.193 35.4823C104.604 34.2028 104.723 32.9112 104.55 31.6049C104.193 28.9365 102.918 26.8664 100.724 25.3875ZM96.3988 35.385L94.5574 35.6356L93.8544 30.4665L95.6958 30.216C97.3305 29.9922 98.2354 31.1671 98.4081 32.432C98.5856 33.7382 97.9532 35.1734 96.3988 35.385Z" fill="#F8BA5C"/>
<path d="M118.824 21.6582C117.192 20.9017 115.477 20.6512 113.679 20.909C111.831 21.1717 110.22 21.8796 108.848 23.0302C107.445 24.2026 106.469 25.6743 105.922 27.4476C105.521 28.7344 105.406 30.026 105.577 31.3226C105.786 32.8964 106.301 34.2999 107.126 35.5284C108.104 36.9927 109.41 38.0947 111.045 38.8317C112.679 39.5712 114.365 39.8242 116.104 39.5931C117.895 39.3547 119.471 38.6882 120.831 37.5911C122.11 36.5573 123.059 35.273 123.674 33.7405C124.29 32.2056 124.489 30.622 124.27 28.9849C124.078 27.5303 123.57 26.1997 122.75 24.9883C121.767 23.524 120.456 22.4147 118.824 21.6582ZM115.448 33.6894C113.689 33.9278 112.069 32.6969 111.831 30.9382C111.592 29.1795 112.823 27.5595 114.582 27.3211C116.34 27.0827 117.96 28.3136 118.199 30.0723C118.44 31.8285 117.206 33.4486 115.448 33.6894Z" fill="#82CCB5"/>
</svg>
