<svg width="46" height="46" viewBox="0 0 46 46" fill="none" xmlns="http://www.w3.org/2000/svg">
<path d="M44.1607 17.4045C48.175 30.9133 39.2769 42.9703 26.9607 45.5223C14.641 48.0743 1.63977 39.7369 0.244887 27.5982C-1.1571 15.4205 5.2175 3.24981 17.5337 0.701392C29.8498 -1.85412 40.6788 5.6882 44.1607 17.4045Z" fill="black"/>
<path d="M22.627 44.1345C34.2238 44.1345 43.6248 34.7335 43.6248 23.1367C43.6248 11.5399 34.2238 2.13885 22.627 2.13885C11.0302 2.13885 1.62915 11.5399 1.62915 23.1367C1.62915 34.7335 11.0302 44.1345 22.627 44.1345Z" fill="#FFBC00"/>
<path d="M18.3892 22.6258C18.4496 22.6258 18.5064 22.6187 18.5667 22.6081C18.9642 22.5229 19.2553 22.1786 19.3902 21.6356C19.5002 21.1919 19.4931 20.6418 19.376 20.0881C19.2588 19.5344 19.0388 19.0304 18.7548 18.6719C18.4105 18.2318 18.0024 18.0366 17.6048 18.1182C17.2073 18.2034 16.9127 18.5477 16.7814 19.0907C16.6714 19.5344 16.6785 20.0845 16.7956 20.6382C17.0476 21.813 17.7113 22.6258 18.3892 22.6258Z" fill="#050505"/>
<path d="M25.7153 21.0605C25.7756 21.0605 25.8324 21.0534 25.8927 21.0428C26.6275 20.8866 26.9753 19.8005 26.702 18.5227C26.4287 17.2414 25.6691 16.3967 24.9344 16.5529C24.5369 16.638 24.2423 16.9823 24.111 17.5254C24.001 17.969 24.0081 18.5192 24.1252 19.0729C24.3736 20.2477 25.0374 21.0605 25.7153 21.0605Z" fill="#050505"/>
<path d="M37.8501 19.1154C37.7791 18.3061 37.3248 18.1571 37.1331 18.1322C36.9273 18.1038 36.7285 18.1642 36.5724 18.3026C36.2316 18.6043 36.2174 19.1651 36.221 19.3283C36.3168 23.9247 33.9529 28.6773 30.0487 31.7297C26.5349 34.4769 22.2615 35.4387 18.3324 34.3704C14.1158 33.224 10.5061 29.664 8.67463 24.844C8.50427 24.3932 8.00026 24.1696 7.54595 24.3365C7.32589 24.4181 7.15197 24.5814 7.05614 24.7943C6.96031 25.0073 6.95321 25.2451 7.03484 25.4616C8.50781 29.3446 11.0633 32.546 14.2258 34.4769C16.4619 35.8434 18.847 36.4361 21.2002 36.4361C26.0415 36.4361 30.7586 33.9267 33.8323 30.4555C36.7711 27.1369 38.1979 23.1084 37.8501 19.1154Z" fill="#050505"/>
</svg>
